<svg width="21" height="22" viewBox="0 0 21 22" fill="none" xmlns="http://www.w3.org/2000/svg">
<g clip-path="url(#clip0_663_80)">
<path fill-rule="evenodd" clip-rule="evenodd" d="M3.26392 21.772C2.43992 21.772 1.66492 21.45 1.81992 20.866C0.119922 19.66 0.119922 17.699 1.81992 16.492L7.45692 10.104C6.33692 6.77197 7.90192 3.55997 11.1639 1.57597C12.9769 0.753973 15.5699 0.753973 16.8699 1.57597C17.1659 1.70997 17.3759 1.98097 17.4349 2.30197C17.4929 2.62097 17.3909 2.94997 17.1609 3.17997L13.4439 6.90497L12.7349 6.21497L13.4419 6.90697L13.4409 6.90797L15.1599 8.48597L18.7289 4.75097C18.9579 4.51997 19.2869 4.41997 19.6049 4.47697C19.9249 4.53597 20.1949 4.74697 20.3289 5.43997C21.9019 8.52797 20.3529 12.645 16.8769 14.222C15.2769 14.947 13.4699 15.33 11.8199 14.478L5.44592 20.866C4.86292 21.45 4.88992 21.772 3.26392 21.772ZM14.1699 2.94097C13.3219 2.94097 12.6259 3.88997 11.9789 3.38197C9.49592 4.50797 8.38992 7.44897 9.51292 9.93797C9.68292 10.314 9.60292 10.755 9.31192 11.47L2.47992 17.893C2.47992 18.327 2.47992 19.31 2.47992 19.464C2.89992 19.885 3.62992 19.884 4.47992 19.464L10.8799 12.618C11.1699 12.327 11.6099 12.248 11.9859 12.417C13.2809 13.3 14.7659 13.3 16.6199 12.417C18.6199 11.509 19.1689 9.42397 18.9359 7.34597L16.3999 9.88797C15.6309 10.644 14.3889 10.645 13.6249 9.89397L12.3599 8.30197C11.2819 7.52997 11.2819 6.28697 12.2799 5.52197C12.3699 5.51297 12.4499 5.50497 12.5399 5.49697L12.6399 5.48697L14.5719 2.97197C14.3869 2.95197 14.2019 2.94097 14.1699 2.94097Z" fill="#121820"/>
</g>
<defs>
<clipPath id="clip0_663_80">
<rect width="21" height="22" fill="white"/>
</clipPath>
</defs>
</svg>
