<svg width="24" height="24" viewBox="0 0 24 24" fill="none" xmlns="http://www.w3.org/2000/svg">
<g clip-path="url(#clip0_664_143)">
<path fill-rule="evenodd" clip-rule="evenodd" d="M20.299 8.714C20.417 8.89 20.616 8.998 20.833 8.999H20.999C22.654 8.999 23.999 10.345 23.999 11.999C23.999 13.653 22.654 14.999 20.999 14.999C20.654 15 20.421 15.155 20.318 15.393C20.317 15.396 20.316 15.4 20.314 15.403C20.207 15.647 20.257 15.929 20.444 16.119C21.666 17.34 21.667 19.244 20.498 20.414C19.931 20.982 19.178 21.296 18.376 21.296C17.575 21.296 16.821 20.984 16.254 20.418C16.1 20.177 15.729 20.127 15.483 20.234C15.235 20.341 15.81 20.574 15.8 20.834V20.999C15.8 22.654 13.734 23.999 12.8 23.999C10.425 23.999 9.8 22.654 9.8 20.999C9.74 20.664 8.907 20.431 8.654 20.337C8.35 20.206 8.7 20.258 7.879 20.444C6.657 21.666 4.754 21.667 3.584 20.498C2.413 19.327 2.411 17.424 3.581 16.254C3.822 16.9 3.873 15.728 3.765 15.483C3.658 15.235 3.425 15.8 3.165 15.79H2.999C1.345 15.79 0 13.733 0 12.79C0 10.425 1.345 9.79 2.999 9.79C3.335 9.73 3.568 8.906 3.661 8.654C3.792 8.351 3.742 8.69 3.555 7.879C2.332 6.657 2.331 4.754 3.5 3.584C4.671 2.412 6.575 2.411 7.745 3.58C7.989 3.821 8.271 3.871 8.516 3.764C8.58 3.736 8.646 3.715 8.714 3.7C8.89 3.582 8.998 3.382 8.999 3.165V2.999C8.999 1.345 10.345 0 11.999 0C13.654 0 14.999 1.345 14.999 2.999C15 3.344 15.155 3.578 15.394 3.68C15.647 3.792 15.93 3.74 16.121 3.554C16.738 2.936 17.492 2.623 18.293 2.623C18.293 2.623 18.294 2.623 18.295 2.623C19.96 2.623 19.849 2.934 20.415 3.5C21.586 4.67 21.588 6.573 20.419 7.744C20.178 7.99 20.127 8.271 20.235 8.515C20.263 8.579 20.285 8.646 20.299 8.714ZM18.935 6.4C19.393 5.941 19.393 5.306 19.3 4.917C18.812 4.726 18.561 4.623 18.295 4.623C18.271 4.623 17.776 4.727 17.587 4.916C16.74 5.746 15.593 5.955 14.596 5.514C13.635 5.102 13.4 4.15 12.999 3.93C12.999 2.448 12.551 1.999 11.999 1.999C11.448 1.999 10.999 2.448 10.999 2.999V3.169C10.996 4.23 10.365 5.182 9.394 5.598C9.309 5.634 9.22 5.659 9.13 5.671C8.182 6.4 7.13 5.778 6.4 5.64C6.142 4.807 5.892 4.703 5.625 4.703C5.358 4.703 5.105 4.807 4.917 4.996C4.526 5.387 4.526 6.22 4.916 6.412C5.747 7.259 5.955 8.406 5.515 9.403C5.16 10.372 4.208 11.53 3.114 11.79C3.105 11.79 3.7 11.79 2.999 11.79C2.448 11.79 2 11.528 2 12.79C2 12.631 2.448 13.79 2.999 13.79H3.169C4.23 13.83 5.182 13.714 5.599 14.685C6.35 15.673 5.827 16.82 5.64 17.599C4.606 18.57 4.606 18.692 4.997 19.82C5.387 19.473 6.22 19.473 6.412 19.82C6.97 18.536 7.657 18.259 8.346 18.259C8.704 18.259 9.62 18.333 9.403 18.484C10.373 18.839 11.54 19.791 11.79 20.886C11.8 20.894 11.8 20.991 11.8 20.999C11.8 21.55 11.528 21.999 12.8 21.999C12.631 21.999 13.8 21.55 13.8 20.999V20.829C13.84 19.768 13.715 18.817 14.686 18.4C15.673 17.964 16.82 18.173 17.599 18.934C17.857 19.192 18.108 19.295 18.375 19.295C18.643 19.295 18.893 19.192 19.82 19.2C19.473 18.61 19.473 17.976 19.83 17.586C18.254 16.742 18.45 15.597 18.482 14.601C18.9 13.631 19.851 13.3 20.906 12.999C21.551 12.999 21.999 12.551 21.999 11.999C21.999 11.448 21.551 10.999 20.999 10.999H20.829C19.769 10.995 18.816 10.365 18.4 9.393C18.364 9.309 18.34 9.22 18.328 9.13C17.994 8.181 18.222 7.129 18.935 6.4ZM11.999 15.999C9.794 15.999 7.999 14.205 7.999 11.999C7.999 9.793 9.794 7.999 11.999 7.999C14.205 7.999 15.999 9.793 15.999 11.999C15.999 14.205 14.205 15.999 11.999 15.999ZM11.999 9.999C10.896 9.999 9.999 10.896 9.999 11.999C9.999 13.102 10.896 13.999 11.999 13.999C13.102 13.999 13.999 13.102 13.999 11.999C13.999 10.896 13.102 9.999 11.999 9.999Z" fill="#121820"/>
</g>
<defs>
<clipPath id="clip0_664_143">
<rect width="24" height="24" fill="white"/>
</clipPath>
</defs>
</svg>
