<svg width="25" height="21" viewBox="0 0 25 21" fill="none" xmlns="http://www.w3.org/2000/svg">
<g clip-path="url(#clip0_742_152)">
<path fill-rule="evenodd" clip-rule="evenodd" d="M7.72 4.18697C6.667 4.89497 6.285 5.62197 5.927 6.36197C5.136 7.99597 4.673 9.68997 4.55 11.401L4.425 13.143L6.146 13.493L8.804 14.3V18.89H2V14.76C2 11.698 2.68 9.21397 4.24 7.37397C4.897 6.17897 5.916 5.11297 7.72 4.18697ZM21.267 4.18697C20.862 4.89497 20.48 5.62197 20.122 6.36197C19.331 7.99597 18.868 9.69097 18.746 11.401L18.621 13.143L20.341 13.493L22.999 14.3V18.89H16.195V14.76C16.195 11.698 16.876 9.21497 18.219 7.37397C19.92 6.17897 20.112 5.11297 21.267 4.18697ZM22.634 0.870972C20.214 2.23097 18.203 4.09997 16.6 6.20597C14.996 8.40397 14.195 11.255 14.195 14.76V20.88H24.999V12.406L20.741 11.542C20.845 10.78 21.24 8.63897 21.924 7.22597C22.606 5.81297 23.369 4.47997 24.211 3.22397L22.634 0.870972ZM8.438 0.870972C6.19 2.23097 4.8 4.09997 2.405 6.20597C0.8 8.40397 0 11.255 0 14.76V20.88H10.804V12.406L6.545 11.542C6.65 10.78 7.44 8.63897 7.728 7.22597C8.411 5.81297 9.174 4.47997 10.15 3.22397L8.438 0.870972Z" fill="#121820"/>
</g>
<defs>
<clipPath id="clip0_742_152">
<rect width="25" height="21" fill="white"/>
</clipPath>
</defs>
</svg>
