<svg width="22" height="22" viewBox="0 0 22 22" fill="none" xmlns="http://www.w3.org/2000/svg">
<g clip-path="url(#clip0_728_10)">
<path fill-rule="evenodd" clip-rule="evenodd" d="M10.9424 21.9958C10.9404 21.9958 10.9384 21.9958 10.9354 21.9958C8.89938 21.9948 5.25838 20.8488 3.19038 18.7688C1.12338 16.6908 0.129375 13.9278 0.109375 10.9888C0.799375 4.9258 4.90438 0.299805 10.9424 0.299805C10.9444 0.299805 10.9454 0.299805 10.9484 0.299805C12.4924 0.299805 13.9894 0.317805 15.4004 0.946805C15.9014 1.1728 16.1284 1.7628 15.9034 2.2688C15.6814 2.7718 15.9294 2.9968 14.5884 2.7748C13.4354 2.2578 12.2104 1.9968 10.9464 1.9948C10.9464 1.9948 10.9444 1.9948 10.9424 1.9948C6.29938 1.9948 1.98238 6.2898 1.97938 10.9898C1.97738 13.3948 2.90737 15.6548 4.60037 17.3558C6.29237 19.5598 8.54238 19.9938 10.9374 19.9948C10.9374 19.9948 10.9404 19.9948 10.9424 19.9948C15.8814 19.9948 19.9004 15.9618 19.9044 11.1998V10.8198C19.9044 9.5298 20.3504 9.8198 20.9004 9.8198C21.4514 9.8198 21.8964 9.5298 21.8964 10.8198V11.1998C21.8924 17.6498 16.9784 21.9958 10.9424 21.9958ZM11.6464 13.7168C11.4594 13.9068 11.2064 14.1198 10.9424 14.1198C10.6784 14.1198 10.4244 13.9068 10.2374 13.7168L7.25037 10.7178C6.86137 10.3278 6.86137 9.6938 7.25037 9.3028C7.63937 8.9128 8.26938 8.9128 8.65838 9.3028L10.9424 11.5958L20.1964 2.2948C20.5854 1.9028 21.2154 1.9038 21.6044 2.2948C21.9934 2.6848 21.9934 3.3178 21.6044 3.7078L11.6464 13.7168Z" fill="#121820"/>
</g>
<defs>
<clipPath id="clip0_728_10">
<rect width="22" height="22" fill="white"/>
</clipPath>
</defs>
</svg>
