<svg width="18" height="22" viewBox="0 0 18 22" fill="none" xmlns="http://www.w3.org/2000/svg">
<g clip-path="url(#clip0_663_84)">
<path fill-rule="evenodd" clip-rule="evenodd" d="M17.706 14.704C17.491 14.92 16.249 15.997 12.999 15.997C11.307 15.997 9.945 15.453 8.628 14.926C7.434 14.448 6.307 13.998 4.999 13.998C3.351 13.998 2.433 14.324 1.999 14.54V20.997C1.999 21.549 1.552 21.997 0.999 21.997C0.447 21.997 0 21.549 0 20.997V13.998V1.99795C0 1.73195 0.105 1.47795 0.292 1.28995C0.508 1.73995 1.75 0.199951 4.999 0.199951C6.692 0.199951 8.54 0.541951 9.371 1.68995C10.564 1.54595 11.692 1.99795 12.999 1.99795C15.444 1.99795 16.309 1.27295 16.318 1.26595C16.614 1.09995 17.47 0.937951 17.401 1.09995C17.757 1.26195 17.999 1.60495 17.999 1.99795V13.998C17.999 14.262 17.894 14.516 17.706 14.704ZM15.999 3.60395C15.279 3.82495 14.3 3.99695 12.999 3.99695C11.307 3.99695 9.945 3.45195 8.628 2.92595C7.434 2.44895 6.307 1.99795 4.999 1.99795C3.366 1.99795 2.438 2.31995 1.999 2.53495V12.391C2.72 12.169 3.698 11.997 4.999 11.997C6.692 11.997 8.54 12.542 9.371 13.68C10.564 13.547 11.692 13.998 12.999 13.998C14.632 13.998 15.56 13.674 15.999 13.457V3.60395Z" fill="#121820"/>
</g>
<defs>
<clipPath id="clip0_663_84">
<rect width="18" height="22" fill="white"/>
</clipPath>
</defs>
</svg>
