<svg width="16" height="21" viewBox="0 0 16 21" fill="none" xmlns="http://www.w3.org/2000/svg">
<g clip-path="url(#clip0_663_86)">
<path fill-rule="evenodd" clip-rule="evenodd" d="M14.999 20.9179C14.794 20.9179 14.591 20.8549 14.418 20.7329L7.999 16.1599L1.58 20.7329C1.275 20.9479 0.875 20.9779 0.541 20.8079C0.208 20.6369 0 20.2939 0 19.9219V3.96392C0 2.31492 1.345 0.971924 2.999 0.971924H12.999C14.654 0.971924 15.999 2.31492 15.999 3.96392V19.9219C15.999 20.2939 15.79 20.6369 15.457 20.8079C15.313 20.8819 15.155 20.9179 14.999 20.9179ZM7.999 13.9369C8.203 13.9369 8.407 13.9999 8.58 14.1229L13.999 17.9829V3.96392C13.999 3.41392 13.551 2.96692 12.999 2.96692H2.999C2.448 2.96692 1.999 3.41392 1.999 3.96392V17.9829L7.418 14.1229C7.592 13.9999 7.795 13.9369 7.999 13.9369Z" fill="#121820"/>
</g>
<defs>
<clipPath id="clip0_663_86">
<rect width="16" height="21" fill="white"/>
</clipPath>
</defs>
</svg>
