<svg width="24" height="19" viewBox="0 0 24 19" fill="none" xmlns="http://www.w3.org/2000/svg">
<g clip-path="url(#clip0_663_88)">
<path fill-rule="evenodd" clip-rule="evenodd" d="M9.36992 18.357C4.98292 18.357 1.44392 15.626 0.429918 11.712C0.161918 9.42096 0.173918 7.35995 1.37992 4.99695C2.58592 2.95895 4.51692 1.50895 6.81592 0.916955C9.11392 0.325955 11.5079 0.662955 13.5529 1.86395C15.3749 2.93495 16.7269 4.57795 17.4199 6.54295H17.9339C21.2019 6.54295 23.8609 9.19296 23.8609 12.45C23.8609 15.708 21.2019 18.357 17.9339 18.357H9.43992C9.41992 18.357 9.38992 18.357 9.36992 18.357ZM9.49992 2.60295C8.46992 2.60295 7.88592 2.67595 7.30992 2.82395C5.52092 3.28495 4.19992 4.41095 3.81992 5.99695C2.14392 7.58195 1.88192 9.43696 2.34292 11.22C3.13192 14.264 5.88392 16.388 9.37992 16.388C9.39992 16.388 9.40992 16.388 9.42992 16.388H17.9339C20.1129 16.388 21.8849 14.622 21.8849 12.45C21.8849 10.279 20.1129 8.51295 17.9339 8.51295H16.6889C16.2389 8.51295 15.8449 8.20795 15.7329 7.77395C15.2709 5.99095 14.1409 4.49596 12.5499 3.56096C11.4719 2.92696 10.2689 2.60295 9.49992 2.60295Z" fill="#121820"/>
</g>
<defs>
<clipPath id="clip0_663_88">
<rect width="24" height="19" fill="white"/>
</clipPath>
</defs>
</svg>
