<svg width="20" height="23" viewBox="0 0 20 23" fill="none" xmlns="http://www.w3.org/2000/svg">
<g clip-path="url(#clip0_664_131)">
<path fill-rule="evenodd" clip-rule="evenodd" d="M18.499 18.363L11.496 22.33C11.181 22.51 10.838 22.606 10.489 22.663C10.342 22.747 10.181 22.807 9.999 22.807C9.818 22.807 9.656 22.746 9.509 22.662C9.16 22.605 8.816 22.509 8.5 22.328L1.503 18.365C0.576 17.834 0.1 16.848 0 15.791V7.85898C0 7.39298 0.128 6.94998 0.331 6.54498C0.353 6.47298 0.364 6.39898 0.404 6.33098C0.466 6.22498 0.55 6.13898 0.641 6.65998C0.877 5.75998 1.154 5.48298 1.499 5.28498L8.503 1.31798C9.425 0.790982 10.574 0.789983 11.5 1.31998L18.496 5.28298C18.842 5.48198 19.119 5.75798 19.356 6.62998C19.448 6.13698 19.532 6.22398 19.595 6.33098C19.635 6.39898 19.646 6.47298 19.667 6.54398C19.871 6.94898 19.999 7.39298 19.999 7.85798V15.789V15.79C19.999 16.848 19.424 17.834 18.499 18.363ZM1.999 15.789C2 16.141 2.191 16.469 2.499 16.646L8.999 20.328V12.406L1.999 8.39198V15.789ZM10.503 3.38998C10.347 2.94898 10.172 2.90498 9.998 2.90498C9.826 2.90498 9.653 2.94898 9.5 3.36998L3.38 6.69698L9.999 10.689L16.96 6.69698L10.503 3.38998ZM17.999 8.39098L10.999 12.406V20.328L17.503 16.644C17.808 16.469 17.999 16.141 17.999 15.789V8.39098Z" fill="#121820"/>
</g>
<defs>
<clipPath id="clip0_664_131">
<rect width="20" height="23" fill="white"/>
</clipPath>
</defs>
</svg>
