<svg width="22" height="22" viewBox="0 0 22 22" fill="none" xmlns="http://www.w3.org/2000/svg">
<g clip-path="url(#clip0_664_133)">
<path fill-rule="evenodd" clip-rule="evenodd" d="M18.999 21.999H3C1.345 21.999 0 20.653 0 18.999V14.999C0 13.345 1.345 11.999 3 11.999H18.999C20.654 11.999 21.999 13.345 21.999 14.999V18.999C21.999 20.653 20.654 21.999 18.999 21.999ZM19.999 14.999C19.999 14.447 19.551 13.999 18.999 13.999H3C2.448 13.999 1.999 14.447 1.999 14.999V18.999C1.999 19.551 2.448 19.999 3 19.999H18.999C19.551 19.999 19.999 19.551 19.999 18.999V14.999ZM5.1 17.999C4.457 17.999 4.5 17.552 4.5 16.999C4.5 16.446 4.447 15.999 4.999 15.999H5.1C5.562 15.999 6.1 16.446 6.1 16.999C6.1 17.552 5.562 17.999 5.1 17.999ZM18.999 9.999H3C1.345 9.999 0 8.653 0 6.999V2.999C0 1.345 1.345 0 3 0H18.999C20.654 0 21.999 1.345 21.999 2.999V6.999C21.999 8.653 20.654 9.999 18.999 9.999ZM19.999 2.999C19.999 2.447 19.551 1.999 18.999 1.999H3C2.448 1.999 1.999 2.447 1.999 2.999V6.999C1.999 7.551 2.448 7.999 3 7.999H18.999C19.551 7.999 19.999 7.551 19.999 6.999V2.999ZM5.1 5.999C4.457 5.999 4.5 5.552 4.5 4.999C4.5 4.446 4.447 3.999 4.999 3.999H5.1C5.562 3.999 6.1 4.446 6.1 4.999C6.1 5.552 5.562 5.999 5.1 5.999Z" fill="#121820"/>
</g>
<defs>
<clipPath id="clip0_664_133">
<rect width="22" height="22" fill="white"/>
</clipPath>
</defs>
</svg>
