<svg width="20" height="20" viewBox="0 0 20 20" fill="none" xmlns="http://www.w3.org/2000/svg">
<g clip-path="url(#clip0_664_137)">
<path fill-rule="evenodd" clip-rule="evenodd" d="M17 19.999H2.999C1.345 19.999 0 18.653 0 16.999V2.999C0 1.345 1.345 0 2.999 0H17C18.654 0 19.999 1.345 19.999 2.999V16.999C19.999 18.653 18.654 19.999 17 19.999ZM1.999 16.999C1.999 17.551 2.448 17.999 2.999 17.999H5.999V7.999H1.999V16.999ZM17.999 2.999C17.999 2.447 17.551 1.999 17 1.999H2.999C2.448 1.999 1.999 2.447 1.999 2.999V5.999H17.999V2.999ZM17.999 7.999H7.999V17.999H17C17.551 17.999 17.999 17.551 17.999 16.999V7.999Z" fill="#121820"/>
</g>
<defs>
<clipPath id="clip0_664_137">
<rect width="20" height="20" fill="white"/>
</clipPath>
</defs>
</svg>
