<svg width="20" height="22" viewBox="0 0 20 22" fill="none" xmlns="http://www.w3.org/2000/svg">
<g clip-path="url(#clip0_664_139)">
<path fill-rule="evenodd" clip-rule="evenodd" d="M16.999 21.999H2.999C1.345 21.999 0 20.654 0 18.999V4.999C0 3.345 1.345 1.999 2.999 1.999H4.999V0.999C4.999 0.447 5.447 0 5.999 0C6.552 0 6.999 0.447 6.999 0.999V1.999H12.999V0.999C12.999 0.447 13.447 0 13.999 0C14.552 0 15 0.447 15 0.999V1.999H16.999C18.654 1.999 19.999 3.345 19.999 4.999V18.999C19.999 20.654 18.654 21.999 16.999 21.999ZM2.999 19.999H16.999C17.551 19.999 17.999 19.55 17.999 18.999V9.999H1.999V18.999C1.999 19.55 2.448 19.999 2.999 19.999ZM16.999 3.999H15V4.999C15 5.551 14.552 5.999 13.999 5.999C13.447 5.999 12.999 5.551 12.999 4.999V3.999H6.999V4.999C6.999 5.551 6.552 5.999 5.999 5.999C5.447 5.999 4.999 5.551 4.999 4.999V3.999H2.999C2.448 3.999 1.999 4.448 1.999 4.999V7.999H17.999V4.999C17.999 4.448 17.551 3.999 16.999 3.999Z" fill="#121820"/>
</g>
<defs>
<clipPath id="clip0_664_139">
<rect width="20" height="22" fill="white"/>
</clipPath>
</defs>
</svg>
