<svg width="22" height="22" viewBox="0 0 22 22" fill="none" xmlns="http://www.w3.org/2000/svg">
<g clip-path="url(#clip0_664_141)">
<path fill-rule="evenodd" clip-rule="evenodd" d="M10.999 21.999C4.934 21.999 0 17.65 0 10.999C0 4.934 4.934 0 10.999 0C17.65 0 21.999 4.934 21.999 10.999C21.999 17.65 17.65 21.999 10.999 21.999ZM10.999 1.999C6.37 1.999 1.999 6.37 1.999 10.999C1.999 15.961 6.37 19.999 10.999 19.999C15.962 19.999 19.999 15.961 19.999 10.999C19.999 6.37 15.962 1.999 10.999 1.999ZM11.9 7.999C10.457 7.999 10.4 7.551 10.4 6.999C10.4 6.447 10.447 5.999 10.999 5.999H11.9C11.561 5.999 12.9 6.447 12.9 6.999C12.9 7.551 11.561 7.999 11.9 7.999ZM10.999 9.999C11.552 9.999 11.999 10.447 11.999 10.999V14.999C11.999 15.551 11.552 15.999 10.999 15.999C10.447 15.999 9.999 15.551 9.999 14.999V10.999C9.999 10.447 10.447 9.999 10.999 9.999Z" fill="#121820"/>
</g>
<defs>
<clipPath id="clip0_664_141">
<rect width="22" height="22" fill="white"/>
</clipPath>
</defs>
</svg>
