<svg width="272" height="187" viewBox="0 0 272 187" fill="none" xmlns="http://www.w3.org/2000/svg">
<path d="M266.994 37.101V75.53C269.828 75.443 271.998 77.897 271.998 80.862C271.998 84.173 269.304 86.865 265.994 86.865C264.156 86.865 262.529 86.018 261.426 84.713L228.272 103.847C228.515 104.498 228.666 105.194 228.666 106.19C228.666 109.24 225.973 112.22 222.662 112.22C219.351 112.22 216.658 109.24 216.658 106.19C216.658 105.176 216.813 104.462 217.68 103.798L183.932 84.673C182.829 86 181.187 86.865 179.33 86.865C177.473 86.865 175.831 86 174.729 84.673L141.593 103.797C141.848 104.462 142.3 105.176 142.3 106.19C142.3 108.897 139.833 111.351 136.999 111.831V150.005C139.833 150.485 142.3 153.3 142.3 156.6C142.3 156.635 141.853 157.325 141.614 158.62L174.731 177.084C175.833 175.757 177.474 174.894 179.33 174.894C182.641 174.894 185.335 177.585 185.335 180.895C185.335 184.205 182.641 186.896 179.33 186.896C176.2 186.896 173.326 184.205 173.326 180.895C173.326 180.159 173.478 179.463 173.721 178.812L140.61 159.703C139.508 161.038 137.862 162.7 135.999 162.7C134.136 162.7 132.489 161.038 131.387 159.703L98.277 178.812C98.52 179.463 98.671 180.159 98.671 180.895C98.671 184.205 95.978 186.896 92.667 186.896C89.356 186.896 86.663 184.205 86.663 180.895C86.663 180.16 86.814 179.464 87.57 178.813L53.947 159.703C52.844 161.038 51.198 162.7 49.335 162.7C46.25 162.7 43.331 159.216 43.331 156.6C43.331 153.3 45.501 150.485 48.334 150.005V111.831C45.501 111.351 43.331 108.897 43.331 106.19C43.331 105.194 43.482 104.499 43.725 103.847L10.571 84.713C9.469 86.018 7.842 86.865 6.4 86.865C2.693 86.865 0 84.173 0 80.864C0 77.897 2.169 75.443 5.3 75.53V36.756C2.169 36.276 0 33.822 0 30.855C0 27.546 2.693 24.853 6.4 24.853C7.877 24.853 9.531 25.733 10.633 27.08L43.725 8.72C43.482 7.331 43.331 6.635 43.331 5.9C43.331 2.59 46.25 0 49.335 0C52.646 0 55.34 2.59 55.34 5.9C55.34 6.635 55.188 7.331 54.945 8.72L88.38 27.08C89.14 25.733 90.794 24.853 92.667 24.853C94.54 24.853 96.194 25.733 97.296 27.08L130.389 8.72C130.146 7.331 129.994 6.635 129.994 5.9C129.994 2.59 132.688 0 135.999 0C139.309 0 142.3 2.59 142.3 5.9C142.3 6.635 141.852 7.331 141.609 8.72L174.895 27.192C175.994 26.68 177.567 25.2 179.33 25.2C181.94 25.2 182.667 26.68 183.766 27.192L217.52 8.72C216.809 7.331 216.658 6.635 216.658 5.9C216.658 2.59 219.351 0 222.662 0C225.973 0 228.666 2.59 228.666 5.9C228.666 6.635 228.515 7.331 228.272 8.72L261.558 27.192C262.657 26.68 264.23 25.2 265.994 25.2C269.304 25.2 271.998 27.892 271.998 31.201C271.998 34.168 269.828 36.622 266.994 37.101ZM179.33 184.897C181.538 184.897 183.333 183.102 183.333 180.895C183.333 178.688 181.538 176.894 179.33 176.894C177.123 176.894 175.328 178.688 175.328 180.895C175.328 183.102 177.123 184.897 179.33 184.897ZM265.994 84.865C268.201 84.865 269.997 83.069 269.997 80.862C269.997 78.657 268.201 76.862 265.994 76.862C263.787 76.862 261.991 78.657 261.991 80.862C261.991 83.069 263.787 84.865 265.994 84.865ZM222.662 110.21C224.869 110.21 226.665 108.137 226.665 106.19C226.665 103.723 224.869 102.19 222.662 102.19C220.455 102.19 218.659 103.723 218.659 106.19C218.659 108.137 220.455 110.21 222.662 110.21ZM179.33 84.865C181.538 84.865 183.333 83.07 183.333 80.864C183.333 78.657 181.538 76.863 179.33 76.863C177.123 76.863 175.327 78.657 175.327 80.864C175.327 83.07 177.123 84.865 179.33 84.865ZM140.2 106.19C140.2 103.723 138.206 102.19 135.999 102.19C133.791 102.19 131.996 103.723 131.996 106.19C131.996 108.137 133.791 110.21 135.999 110.21C138.206 110.21 140.2 108.137 140.2 106.19ZM135.999 160.7C138.206 160.7 140.2 158.113 140.2 156.6C140.2 153.699 138.206 152.4 135.999 152.4C133.791 152.4 131.996 153.699 131.996 156.6C131.996 158.113 133.791 160.7 135.999 160.7ZM92.667 184.897C94.874 184.897 96.67 183.102 96.67 180.895C96.67 178.688 94.874 176.894 92.667 176.894C90.46 176.894 88.664 178.688 88.664 180.895C88.664 183.102 90.46 184.897 92.667 184.897ZM54.95 158.63L88.66 177.085C89.169 175.758 90.81 174.894 92.667 174.894C94.524 174.894 96.165 175.758 97.268 177.085L130.384 158.63C130.145 157.326 129.994 156.636 129.994 156.6C129.994 153.3 132.164 150.485 134.998 150.005V111.831C132.164 111.351 129.994 108.897 129.994 106.19C129.994 105.194 130.146 104.499 130.389 103.847L97.235 84.713C96.132 86.018 94.505 86.865 92.667 86.865C90.811 86.865 89.169 86.001 88.67 84.674L54.93 103.798C55.184 104.463 55.34 105.176 55.34 106.19C55.34 108.897 53.169 111.351 50.336 111.831V150.005C53.169 150.485 55.34 153.3 55.34 156.6C55.34 156.636 55.189 157.326 54.95 158.63ZM96.67 80.864C96.67 78.657 94.874 76.863 92.667 76.863C90.46 76.863 88.664 78.657 88.664 80.864C88.664 83.07 90.46 84.865 92.667 84.865C94.874 84.865 96.67 83.07 96.67 80.864ZM45.332 156.6C45.332 158.113 47.128 160.7 49.335 160.7C51.542 160.7 53.338 158.113 53.338 156.6C53.338 153.699 51.542 152.4 49.335 152.4C47.128 152.4 45.332 153.699 45.332 156.6ZM49.335 110.21C51.542 110.21 53.338 108.137 53.338 106.19C53.338 103.723 51.542 102.19 49.335 102.19C47.128 102.19 45.332 103.723 45.332 106.19C45.332 108.137 47.128 110.21 49.335 110.21ZM2.1 80.864C2.1 83.07 3.796 84.865 6.4 84.865C8.211 84.865 10.6 83.07 10.6 80.864C10.6 78.657 8.211 76.863 6.4 76.863C3.796 76.863 2.1 78.657 2.1 80.864ZM6.4 26.854C3.796 26.854 2.1 28.648 2.1 30.855C2.1 33.062 3.796 34.857 6.4 34.857C8.211 34.857 10.6 33.062 10.6 30.855C10.6 28.648 8.211 26.854 6.4 26.854ZM49.335 1.898C47.128 1.898 45.332 3.692 45.332 5.9C45.332 8.106 47.128 9.9 49.335 9.9C51.542 9.9 53.338 8.106 53.338 5.9C53.338 3.692 51.542 1.898 49.335 1.898ZM87.44 28.816L53.936 9.709C52.834 11.037 51.192 12 49.335 12C47.478 12 45.837 11.037 44.734 9.709L11.627 28.816C11.86 29.456 12.8 30.136 12.8 30.855C12.8 33.822 9.838 36.276 7.4 36.756V75.53C9.838 75.443 12.8 77.897 12.8 80.864C12.8 81.618 11.853 82.332 11.598 83.87L44.734 102.121C45.836 100.793 47.478 100.18 49.335 100.18C51.173 100.18 52.801 100.776 53.903 102.08L87.57 83.37C86.814 82.295 86.663 81.599 86.663 80.864C86.663 77.897 88.833 75.443 91.666 75.53V36.756C88.833 36.276 86.663 33.822 86.663 30.855C86.663 30.136 86.811 29.456 87.44 28.816ZM92.667 26.854C90.46 26.854 88.664 28.648 88.664 30.855C88.664 33.062 90.46 34.857 92.667 34.857C94.874 34.857 96.67 33.062 96.67 30.855C96.67 28.648 94.874 26.854 92.667 26.854ZM135.999 1.898C133.791 1.898 131.996 3.692 131.996 5.9C131.996 8.106 133.791 9.9 135.999 9.9C138.206 9.9 140.2 8.106 140.2 5.9C140.2 3.692 138.206 1.898 135.999 1.898ZM173.798 28.869L140.6 9.709C139.498 11.037 137.856 12 135.999 12C134.142 12 132.5 11.037 131.398 9.709L98.29 28.816C98.523 29.456 98.671 30.136 98.671 30.855C98.671 33.823 96.501 36.276 93.667 36.756V75.53C96.501 75.443 98.671 77.897 98.671 80.864C98.671 81.617 98.516 82.332 98.261 83.86L131.398 102.121C132.5 100.793 134.142 100.18 135.999 100.18C137.836 100.18 139.463 100.775 140.566 102.08L173.72 83.36C173.477 82.295 173.326 81.599 173.326 80.864C173.326 77.897 175.496 75.443 178.329 75.53V37.101C175.496 36.622 173.326 34.168 173.326 31.201C173.326 30.374 173.495 29.586 173.798 28.869ZM179.33 27.199C177.123 27.199 175.328 29.85 175.328 31.201C175.328 33.408 177.123 35.202 179.33 35.202C181.538 35.202 183.333 33.408 183.333 31.201C183.333 29.85 181.538 27.199 179.33 27.199ZM222.662 1.898C220.455 1.898 218.659 3.692 218.659 5.9C218.659 8.106 220.455 9.9 222.662 9.9C224.869 9.9 226.665 8.106 226.665 5.9C226.665 3.692 224.869 1.898 222.662 1.898ZM260.462 28.869L227.263 9.709C226.161 11.037 224.519 12 222.662 12C220.805 12 219.163 11.037 218.61 9.709L184.863 28.869C185.166 29.586 185.335 30.374 185.335 31.201C185.335 34.168 183.165 36.622 180.331 37.101V75.53C183.165 75.443 185.335 77.897 185.335 80.864C185.335 81.599 185.183 82.295 184.94 83.36L218.95 102.079C219.197 100.775 220.824 100.18 222.662 100.18C224.519 100.18 226.161 100.793 227.263 102.121L260.4 83.86C260.145 82.331 259.99 81.616 259.99 80.862C259.99 77.897 262.159 75.443 264.993 75.53V37.101C262.159 36.622 259.99 34.168 259.99 31.201C259.99 30.374 260.158 29.586 260.462 28.869ZM265.994 27.199C263.787 27.199 261.991 29.85 261.991 31.201C261.991 33.408 263.787 35.202 265.994 35.202C268.201 35.202 269.997 33.408 269.997 31.201C269.997 29.85 268.201 27.199 265.994 27.199Z" fill="url(#paint0_linear_663_65)"/>
<defs>
<linearGradient id="paint0_linear_663_65" x1="0" y1="187" x2="0" y2="0" gradientUnits="userSpaceOnUse">
<stop stop-color="#DCDDDE"/>
<stop offset="0.75" stop-color="#DCDDDE" stop-opacity="0.5"/>
<stop offset="1" stop-color="#DCDDDE" stop-opacity="0"/>
</linearGradient>
</defs>
</svg>
