<svg width="382" height="115" fill="none" xmlns="http://www.w3.org/2000/svg"><g filter="url(#filter0_d)"><path fill-rule="evenodd" clip-rule="evenodd" d="M11.098 20a8 8 0 018-8h334a8 8 0 018 8v59a8 8 0 01-8 8h-334a8 8 0 01-8-8V20z" fill="#fff"/><path d="M11.598 20a7.5 7.5 0 017.5-7.5h334a7.5 7.5 0 017.5 7.5v59a7.5 7.5 0 01-7.5 7.5h-334a7.5 7.5 0 01-7.5-7.5V20z" stroke="#F6F6F9"/></g><path d="M73.44 46h1.392v-4.656h1.856c2.176 0 4-.944 4-3.376v-.064c0-2.384-1.808-3.344-4-3.344H73.44V46zm1.392-5.76v-4.56h1.952c1.552 0 2.512.608 2.512 2.224v.064c0 1.472-.88 2.272-2.512 2.272h-1.952zm10.32 5.904c1.345 0 2.273-.688 2.657-1.472V46h1.328v-8.368h-1.328v5.072c0 1.504-1.12 2.288-2.304 2.288-1.312 0-1.936-.656-1.936-2.128v-5.232H82.24v5.296c0 2.304 1.248 3.216 2.912 3.216zm10.509 0c2.304 0 3.808-1.76 3.808-4.32v-.128c0-2.608-1.616-4.208-3.808-4.208-1.216 0-2.352.736-2.832 1.552v-5.408H91.5V46h1.328v-1.376c.48.832 1.472 1.52 2.832 1.52zm-.128-1.104c-1.632 0-2.752-1.008-2.752-3.152v-.128c0-2.144 1.184-3.168 2.736-3.168 1.408 0 2.576 1.056 2.576 3.168v.128c0 2.032-.896 3.152-2.56 3.152zm5.711.96h1.344V33.632h-1.344V46zm3.774 0h1.328v-8.368h-1.328V46zm.64-10.112c.48 0 .88-.4.88-.88s-.4-.88-.88-.88-.88.4-.88.88.4.88.88.88zm6.558 10.256c2.016 0 3.472-1.344 3.648-3.152h-1.232c-.144 1.36-1.216 2.048-2.4 2.048-1.616 0-2.736-1.088-2.736-3.136v-.128c0-1.968 1.168-3.184 2.688-3.184 1.152 0 2.112.496 2.32 1.824h1.312c-.256-2.128-1.888-2.928-3.632-2.928-2.24 0-4.064 1.728-4.064 4.288v.128c0 2.592 1.76 4.24 4.096 4.24zm8.479-.144h1.312l1.104-3.296h4.72l1.12 3.296h1.376l-3.872-11.44h-1.824L120.695 46zm4.784-10.288l1.984 5.888h-3.968l1.984-5.888zm9.683 10.432c2.016 0 3.472-1.344 3.648-3.152h-1.232c-.144 1.36-1.216 2.048-2.4 2.048-1.616 0-2.736-1.088-2.736-3.136v-.128c0-1.968 1.168-3.184 2.688-3.184 1.152 0 2.112.496 2.32 1.824h1.312c-.256-2.128-1.888-2.928-3.632-2.928-2.24 0-4.064 1.728-4.064 4.288v.128c0 2.592 1.76 4.24 4.096 4.24zm8.805 0c2.016 0 3.472-1.344 3.648-3.152h-1.232c-.144 1.36-1.216 2.048-2.4 2.048-1.616 0-2.736-1.088-2.736-3.136v-.128c0-1.968 1.168-3.184 2.688-3.184 1.152 0 2.112.496 2.32 1.824h1.312c-.256-2.128-1.888-2.928-3.632-2.928-2.24 0-4.064 1.728-4.064 4.288v.128c0 2.592 1.76 4.24 4.096 4.24zm8.757 0c1.888 0 3.28-.88 3.568-2.56h-1.328c-.176.976-.928 1.456-2.224 1.456-1.712 0-2.624-1.056-2.688-2.96h6.304v-.432c0-2.992-1.824-4.16-3.76-4.16-2.304 0-3.92 1.76-3.92 4.288v.128c0 2.576 1.68 4.24 4.048 4.24zm-2.624-5.136c.224-1.488 1.136-2.416 2.496-2.416 1.376 0 2.272.688 2.4 2.416H150.1zm10.644 5.136c2.032 0 3.072-1.024 3.072-2.544 0-1.776-1.216-2.16-2.944-2.48-1.536-.272-1.952-.576-1.952-1.328 0-.72.624-1.2 1.584-1.2 1.056 0 1.568.4 1.76 1.312h1.28c-.224-1.808-1.52-2.416-3.024-2.416-1.312 0-2.832.8-2.832 2.352 0 1.456.736 2.064 2.912 2.464 1.296.24 1.952.528 1.952 1.408 0 .896-.56 1.328-1.824 1.328-1.344 0-1.872-.624-1.968-1.616h-1.296c.08 1.712 1.28 2.72 3.28 2.72zm7.368 0c2.032 0 3.072-1.024 3.072-2.544 0-1.776-1.216-2.16-2.944-2.48-1.536-.272-1.952-.576-1.952-1.328 0-.72.624-1.2 1.584-1.2 1.056 0 1.568.4 1.76 1.312h1.28c-.224-1.808-1.52-2.416-3.024-2.416-1.312 0-2.832.8-2.832 2.352 0 1.456.736 2.064 2.912 2.464 1.296.24 1.952.528 1.952 1.408 0 .896-.56 1.328-1.824 1.328-1.344 0-1.872-.624-1.968-1.616h-1.296c.08 1.712 1.28 2.72 3.28 2.72z" fill="#576DDF"/><path d="M72.432 64h.984l.828-2.472h3.54l.84 2.472h1.032l-2.904-8.58h-1.368L72.432 64zm3.588-7.716l1.488 4.416h-2.976l1.488-4.416zM81.094 64h.996v-3.804c0-1.128.828-1.716 1.752-1.716 1.008 0 1.476.492 1.476 1.596V64h.996v-3.852c0-1.824-.912-2.532-2.208-2.532-1.032 0-1.728.516-2.016 1.104v-.996h-.996V64zm7.56 2.184h1.008l3.468-8.46h-1.02l-1.74 4.5-1.92-4.5h-1.068l2.46 5.628-1.188 2.832zm8.228-2.904c-1.272 0-2.052-.936-2.052-2.364v-.096c0-1.44.792-2.376 2.052-2.376 1.248 0 2.052.936 2.052 2.388v.084c0 1.416-.792 2.364-2.052 2.364zm-.012.828c1.788 0 3.096-1.308 3.096-3.204v-.096c0-1.884-1.308-3.192-3.084-3.192s-3.084 1.32-3.084 3.204v.096c0 1.836 1.284 3.192 3.072 3.192zm4.638-.108h.996v-3.804c0-1.128.828-1.716 1.752-1.716 1.008 0 1.476.492 1.476 1.596V64h.996v-3.852c0-1.824-.912-2.532-2.208-2.532-1.032 0-1.728.516-2.016 1.104v-.996h-.996V64zm9.74.108c1.416 0 2.46-.66 2.676-1.92h-.996c-.132.732-.696 1.092-1.668 1.092-1.284 0-1.968-.792-2.016-2.22h4.728v-.324c0-2.244-1.368-3.12-2.82-3.12-1.728 0-2.94 1.32-2.94 3.216v.096c0 1.932 1.26 3.18 3.036 3.18zm-1.968-3.852c.168-1.116.852-1.812 1.872-1.812 1.032 0 1.704.516 1.8 1.812h-3.672zM119.936 64h1.092l1.464-4.704L123.8 64h1.104l1.956-6.276h-1.02l-1.476 5.052-1.428-5.052h-.864l-1.524 5.052-1.464-5.052h-1.08L119.936 64zm8.291 0h.996v-6.276h-.996V64zm.48-7.584c.36 0 .66-.3.66-.66 0-.36-.3-.66-.66-.66-.36 0-.66.3-.66.66 0 .36.3.66.66.66zm4.463 7.668c.408 0 .648-.06.852-.132v-.84a2.05 2.05 0 01-.768.132c-.504 0-.78-.3-.78-.912v-3.768h1.464v-.84h-1.464v-1.428h-.996v1.428h-.9v.84h.9v3.864c0 .984.552 1.656 1.692 1.656zm2.358-.084h.996v-3.804c0-1.128.828-1.716 1.752-1.716 1.008 0 1.476.492 1.476 1.596V64h.996v-3.852c0-1.824-.912-2.532-2.208-2.532-1.032 0-1.728.516-2.016 1.104v-3.996h-.996V64zm12.255.084c.408 0 .648-.06.852-.132v-.84a2.05 2.05 0 01-.768.132c-.504 0-.78-.3-.78-.912v-3.768h1.464v-.84h-1.464v-1.428h-.996v1.428h-.9v.84h.9v3.864c0 .984.552 1.656 1.692 1.656zm2.358-.084h.996v-3.804c0-1.128.828-1.716 1.752-1.716 1.008 0 1.476.492 1.476 1.596V64h.996v-3.852c0-1.824-.912-2.532-2.208-2.532-1.032 0-1.728.516-2.016 1.104v-3.996h-.996V64zm9.74.108c1.416 0 2.46-.66 2.676-1.92h-.996c-.132.732-.696 1.092-1.668 1.092-1.284 0-1.968-.792-2.016-2.22h4.728v-.324c0-2.244-1.368-3.12-2.82-3.12-1.728 0-2.94 1.32-2.94 3.216v.096c0 1.932 1.26 3.18 3.036 3.18zm-1.968-3.852c.168-1.116.852-1.812 1.872-1.812 1.032 0 1.704.516 1.8 1.812h-3.672zm9.42 3.744h1.008v-9.276h-1.008V64zm3.07 0h.996v-6.276h-.996V64zm.48-7.584c.36 0 .66-.3.66-.66 0-.36-.3-.66-.66-.66-.36 0-.66.3-.66.66 0 .36.3.66.66.66zM173.438 64h.996v-3.804c0-1.128.828-1.716 1.752-1.716 1.008 0 1.476.492 1.476 1.596V64h.996v-3.852c0-1.824-.912-2.532-2.208-2.532-1.032 0-1.728.516-2.016 1.104v-.996h-.996V64zm7.172 0h.996v-3.252L184.39 64h1.212l-2.916-3.36 2.688-2.916h-1.164l-2.604 2.892v-5.892h-.996V64zm11.967.108c1.512 0 2.604-1.008 2.736-2.364h-.924c-.108 1.02-.912 1.536-1.8 1.536-1.212 0-2.052-.816-2.052-2.352v-.096c0-1.476.876-2.388 2.016-2.388.864 0 1.584.372 1.74 1.368h.984c-.192-1.596-1.416-2.196-2.724-2.196-1.68 0-3.048 1.296-3.048 3.216v.096c0 1.944 1.32 3.18 3.072 3.18zm5.812 0c.924 0 1.488-.312 1.956-.9V64h.996v-4.14c0-1.752-1.092-2.244-2.292-2.244-1.212 0-2.352.528-2.484 1.956h.996c.096-.768.576-1.128 1.44-1.128.96 0 1.344.42 1.344 1.416v.456h-.9c-1.608 0-3.144.492-3.144 1.944 0 1.284.924 1.848 2.088 1.848zm.096-.792c-.876 0-1.188-.408-1.188-1.056 0-.924.924-1.236 2.184-1.236h.864v.78c0 .972-.804 1.512-1.86 1.512zm4.812.684h.996v-3.804c0-1.128.828-1.716 1.752-1.716 1.008 0 1.476.492 1.476 1.596V64h.996v-3.852c0-1.824-.912-2.532-2.208-2.532-1.032 0-1.728.516-2.016 1.104v-.996h-.996V64zm11.92 0h1.272l2.256-6.276h-1.032l-1.836 5.268-1.86-5.268h-1.08l2.28 6.276zm4.862 0h.996v-6.276h-.996V64zm.48-7.584c.36 0 .66-.3.66-.66 0-.36-.3-.66-.66-.66-.36 0-.66.3-.66.66 0 .36.3.66.66.66zm5.122 7.692c1.416 0 2.46-.66 2.676-1.92h-.996c-.132.732-.696 1.092-1.668 1.092-1.284 0-1.968-.792-2.016-2.22h4.728v-.324c0-2.244-1.368-3.12-2.82-3.12-1.728 0-2.94 1.32-2.94 3.216v.096c0 1.932 1.26 3.18 3.036 3.18zm-1.968-3.852c.168-1.116.852-1.812 1.872-1.812 1.032 0 1.704.516 1.8 1.812h-3.672zM231.135 64h1.092l1.464-4.704L234.999 64h1.104l1.956-6.276h-1.02l-1.476 5.052-1.428-5.052h-.864l-1.524 5.052-1.464-5.052h-1.08L231.135 64z" fill="#586EE0"/><path fill-rule="evenodd" clip-rule="evenodd" d="M47.015 42.575c.365-.42.7-.575.985-.575.285 0 .62.155.985.575.365.418.716 1.053 1.02 1.88.283.766.517 1.674.687 2.685-.857-.092-1.76-.14-2.692-.14-.931 0-1.835.048-2.692.14.17-1.011.404-1.92.686-2.685.305-.827.656-1.462 1.02-1.88zm-2.742 4.698c.182-1.184.45-2.257.783-3.163.272-.738.595-1.384.966-1.892a9.012 9.012 0 00-6.804 6.804c.508-.371 1.154-.694 1.892-.966.906-.334 1.979-.6 3.163-.782zm-5.055 5.705c.508.371 1.154.694 1.892.966.906.334 1.979.6 3.163.782.182 1.185.45 2.258.783 3.164.272.738.595 1.384.966 1.892a9.012 9.012 0 01-6.804-6.804zm4.922.714a15.112 15.112 0 01-2.685-.686c-.827-.305-1.462-.656-1.88-1.02-.42-.366-.575-.7-.575-.986 0-.285.155-.62.575-.985.418-.365 1.053-.716 1.88-1.02a15.112 15.112 0 012.685-.687c-.092.857-.14 1.76-.14 2.692 0 .931.048 1.835.14 2.692zm1.022.146A24.351 24.351 0 0145 51c0-.993.057-1.946.162-2.838A24.351 24.351 0 0148 48c.993 0 1.946.057 2.838.162.105.892.162 1.845.162 2.838 0 .993-.057 1.946-.162 2.838-.892.105-1.845.162-2.838.162-.993 0-1.946-.057-2.838-.162zm.146 1.022c.17 1.011.404 1.92.686 2.685.305.827.656 1.462 1.02 1.88.366.42.7.575.986.575.285 0 .62-.155.985-.575.365-.418.716-1.053 1.02-1.88.283-.766.517-1.674.687-2.685-.857.092-1.76.14-2.692.14-.931 0-1.835-.048-2.692-.14zm6.419-.133c-.182 1.184-.45 2.257-.783 3.163-.272.738-.595 1.384-.966 1.892a9.012 9.012 0 006.804-6.804c-.508.371-1.154.694-1.892.966-.906.334-1.979.6-3.163.782zm5.055-5.705c-.508-.371-1.154-.694-1.892-.966-.906-.334-1.979-.6-3.163-.782-.182-1.185-.45-2.258-.783-3.164-.272-.738-.595-1.384-.966-1.892a9.012 9.012 0 016.804 6.804zm-4.922-.714c1.011.17 1.92.404 2.685.686.827.305 1.462.656 1.88 1.02.42.366.575.7.575.986 0 .285-.155.62-.575.985-.418.365-1.053.716-1.88 1.02-.766.283-1.674.517-2.685.687.092-.857.14-1.76.14-2.692 0-.931-.048-1.835-.14-2.692zM58 51c0 5.523-4.477 10-10 10s-10-4.477-10-10 4.477-10 10-10 10 4.477 10 10z" fill="#586EE0"/><rect x="304" y="41" width="30" height="18" rx="9" fill="#586EE0"/><g filter="url(#filter1_dd)"><path fill-rule="evenodd" clip-rule="evenodd" d="M325 59a9 9 0 009-9 9 9 0 00-9-9 9 9 0 00-9 9 9 9 0 009 9z" fill="#fff"/><path d="M333.5 50a8.5 8.5 0 11-17 0 8.5 8.5 0 0117 0z" stroke="#DDDFE5"/></g><defs><filter id="filter0_d" x="-8.902" y="0" width="390" height="115" filterUnits="userSpaceOnUse" color-interpolation-filters="sRGB"><feFlood flood-opacity="0" result="BackgroundImageFix"/><feColorMatrix in="SourceAlpha" values="0 0 0 0 0 0 0 0 0 0 0 0 0 0 0 0 0 0 127 0"/><feOffset dy="8"/><feGaussianBlur stdDeviation="10"/><feColorMatrix values="0 0 0 0 0 0 0 0 0 0 0 0 0 0 0 0 0 0 0.1 0"/><feBlend in2="BackgroundImageFix" result="effect1_dropShadow"/><feBlend in="SourceGraphic" in2="effect1_dropShadow" result="shape"/></filter><filter id="filter1_dd" x="310" y="38" width="30" height="30" filterUnits="userSpaceOnUse" color-interpolation-filters="sRGB"><feFlood flood-opacity="0" result="BackgroundImageFix"/><feColorMatrix in="SourceAlpha" values="0 0 0 0 0 0 0 0 0 0 0 0 0 0 0 0 0 0 127 0"/><feOffset dy="3"/><feGaussianBlur stdDeviation="3"/><feColorMatrix values="0 0 0 0 0.403922 0 0 0 0 0.431373 0 0 0 0 0.564706 0 0 0 0.2 0"/><feBlend mode="multiply" in2="BackgroundImageFix" result="effect1_dropShadow"/><feColorMatrix in="SourceAlpha" values="0 0 0 0 0 0 0 0 0 0 0 0 0 0 0 0 0 0 127 0"/><feOffset dy="1"/><feGaussianBlur stdDeviation="1.5"/><feColorMatrix values="0 0 0 0 0.403922 0 0 0 0 0.431373 0 0 0 0 0.564706 0 0 0 0.2 0"/><feBlend mode="multiply" in2="effect1_dropShadow" result="effect2_dropShadow"/><feBlend in="SourceGraphic" in2="effect2_dropShadow" result="shape"/></filter></defs></svg>