<svg width="90" height="60" viewBox="0 0 90 60" fill="none" xmlns="http://www.w3.org/2000/svg">
<path d="M72.3281 0V25.316H85.751V20.9665H76.8764V14.9442H85.3073V10.5948H76.8764V4.34944H85.751V0H72.3281ZM50.0307 0H45.3715V16.0595C45.3715 17.6208 45.4824 18.8476 45.8152 19.8513C46.148 20.855 46.4808 21.6357 46.9245 22.0818C47.1464 22.4164 47.5901 22.8625 48.0339 23.3085C48.4776 23.7546 49.0323 24.0892 49.6979 24.5353C50.3635 24.8699 51.0291 25.2045 51.8056 25.4275C52.5821 25.6506 53.4696 25.7621 54.468 25.7621C56.2429 25.7621 57.685 25.4275 59.0162 24.6468C60.3474 23.8662 61.3458 22.974 62.0114 21.9703C62.5661 21.0781 63.0098 20.1859 63.2317 19.0706C63.4535 18.0669 63.5644 16.9517 63.5644 15.948V0H58.7943V16.0595C58.7943 16.3941 58.7943 16.8401 58.6834 17.3978C58.5725 17.9554 58.4615 18.6245 58.2397 19.1822C58.0178 19.7398 57.5741 20.2974 56.9085 20.7435C56.3538 21.1896 55.4664 21.4126 54.357 21.4126C53.2477 21.4126 52.4712 21.1896 51.8056 20.7435C51.2509 20.2974 50.8072 19.7398 50.4744 19.1822C50.1416 18.6245 50.0307 17.9554 50.0307 17.3978C50.0307 16.8401 49.9197 16.3941 49.9197 16.0595V0H50.0307ZM26.0692 0V25.316H38.2718V20.9665H30.6174V0H26.0692ZM29.1753 34.684L18.6367 60H23.7396L26.402 53.4201H35.4985L38.1609 60H43.2638L32.7252 34.684H29.1753ZM3.21705 0V25.316H9.87301C10.3167 25.316 10.7605 25.316 11.3151 25.316C11.8698 25.316 12.4245 25.2045 12.9791 25.0929C13.5338 24.9814 14.1994 24.8699 14.7541 24.6468C15.3087 24.4238 15.8634 24.2007 16.3071 23.8662C16.6399 23.6431 17.0836 23.3085 17.4164 22.8625C17.7492 22.5279 18.082 22.0818 18.4148 21.5242C18.7476 21.0781 18.9695 20.5204 19.0804 19.8513C19.3023 19.1822 19.3023 18.513 19.3023 17.7323C19.3023 16.6171 19.1914 15.7249 18.8586 15.0558C18.5258 14.3866 18.193 13.7175 17.7492 13.2714C17.3055 12.8253 16.8618 12.3792 16.3071 12.1561C15.7524 11.9331 15.3087 11.71 14.9759 11.487C15.1978 11.3755 15.4196 11.1524 15.7524 11.0409C16.0852 10.9294 16.418 10.4833 16.6399 10.1487C16.9727 9.81413 17.1946 9.25651 17.4164 8.69888C17.6383 8.14126 17.7492 7.47212 17.7492 6.69145C17.7492 5.79926 17.5274 4.90706 17.1946 4.12639C16.7508 3.2342 16.3071 2.56506 15.6415 2.00743C15.0869 1.56134 14.5322 1.11524 13.8666 0.892193C13.3119 0.669145 12.6463 0.446097 11.9807 0.334572C11.537 0.111524 10.8714 0.111524 10.2058 0C9.54021 0 8.87462 0 8.09809 0H3.21705ZM8.20902 50.632V60H12.8682V50.632L21.0772 34.684H15.9743L10.5386 46.2825L5.1029 34.684H0L8.20902 50.632ZM69.222 34.684V60H74.9905C75.6561 60 76.4326 60 77.2092 59.8885C77.9857 59.777 78.6513 59.777 79.4278 59.6654C80.2044 59.5539 80.8699 59.3309 81.5355 59.1078C82.2011 58.8848 82.8667 58.6617 83.4214 58.3271C84.3089 57.7695 85.1963 57.2119 85.8619 56.4312C86.5275 55.6506 87.1931 54.7584 87.7478 53.8662C88.3024 52.8625 88.6352 51.8587 88.968 50.7435C89.3008 49.6283 89.4118 48.513 89.4118 47.3978C89.4118 46.3941 89.3008 45.3903 89.079 44.4981C88.8571 43.4944 88.6352 42.6022 88.1915 41.8216C87.8587 40.9294 87.415 40.1487 86.8603 39.4796C86.3057 38.8104 85.8619 38.1413 85.1963 37.5836C84.8635 37.2491 84.4198 36.9145 83.8651 36.5799C83.3105 36.2454 82.6449 35.9108 81.8683 35.5762C81.0918 35.2416 80.0934 35.0186 78.9841 34.9071C77.8748 34.7955 76.5436 34.684 74.9905 34.684H69.222ZM46.8136 34.684V60H51.4728V50.2974H51.5837L58.2397 60H63.8972L57.0194 50.632C57.685 50.5204 58.3506 50.2974 59.0162 49.9628C59.6818 49.6283 60.4583 49.1822 61.2349 48.513C61.6786 48.0669 62.1223 47.6208 62.3442 47.0632C62.677 46.5056 62.8989 45.948 63.1207 45.5019C63.3426 44.9442 63.4535 44.3866 63.5644 43.9405C63.6754 43.3829 63.6754 42.9368 63.6754 42.4907C63.6754 41.71 63.5644 41.0409 63.4535 40.4833C63.3426 39.9257 63.0098 39.2565 62.7879 38.8104C62.4551 38.2528 62.2333 37.8067 61.7895 37.4721C61.3458 37.1375 61.1239 36.6915 60.6802 36.4684C59.9037 35.9108 59.1271 35.4647 58.1287 35.1301C57.1304 34.9071 56.021 34.684 54.468 34.684H46.8136ZM28.066 49.0706L30.9502 41.3755H31.0612L33.9454 49.0706H28.066ZM7.87622 9.92565V4.46097H9.76208C11.0933 4.46097 11.9807 4.68401 12.5354 5.24164C13.0901 5.79926 13.3119 6.4684 13.3119 7.13755C13.3119 7.80669 13.201 8.36431 12.8682 8.69888C12.5354 9.03346 12.2026 9.36803 11.7589 9.47955C11.3151 9.59108 10.8714 9.92565 10.4277 9.92565C9.98394 9.92565 9.65115 9.92565 9.31835 9.92565H7.87622ZM7.87622 20.855V14.1636H10.3167C11.3151 14.1636 12.0917 14.2751 12.7573 14.6097C13.4229 14.9442 13.8666 15.1673 14.1994 15.5019C14.5322 15.8364 14.7541 16.171 14.865 16.6171C14.9759 16.9517 14.9759 17.2862 14.9759 17.6208C14.9759 18.4015 14.7541 19.0706 14.3103 19.5167C13.8666 19.9628 13.4229 20.2974 12.8682 20.5204C12.3135 20.7435 11.8698 20.855 11.3151 20.855C10.7605 20.855 10.4277 20.855 10.2058 20.855H7.87622ZM73.8812 55.7621V39.145H74.7687C76.2108 39.145 77.542 39.2565 78.7622 39.5911C79.9825 39.8141 81.0918 40.4833 81.9793 41.3755C82.7558 42.1561 83.4214 43.0483 83.9761 44.1636C84.4198 45.2788 84.7526 46.3941 84.7526 47.6208C84.7526 48.29 84.6417 48.9591 84.5307 49.6283C84.4198 50.2974 84.087 50.9665 83.8651 51.6357C83.6433 52.3048 83.1995 52.8625 82.6449 53.3085C82.2011 53.8662 81.6465 54.2007 80.9809 54.6468C80.5372 54.8699 79.9825 55.0929 79.5388 55.316C79.095 55.4275 78.6513 55.6506 78.0966 55.6506C77.542 55.6506 77.0982 55.7621 76.5436 55.8736C75.9889 55.9851 75.4342 55.8736 74.7687 55.8736H73.8812V55.7621ZM51.3618 46.8401V39.145H54.357C55.2445 39.145 56.021 39.2565 56.5757 39.5911C57.1304 39.8141 57.5741 40.1487 57.9069 40.5948C58.2397 41.0409 58.4615 41.3755 58.5725 41.8216C58.6834 42.2677 58.7943 42.6022 58.7943 43.0483C58.7943 43.3829 58.7943 43.829 58.6834 44.2751C58.5725 44.7212 58.3506 45.1673 58.0178 45.5019C57.685 45.8364 57.2413 46.2825 56.6866 46.5056C56.132 46.7286 55.3554 46.8401 54.357 46.8401H51.3618Z" fill="#0336F4"/>
</svg>
