<svg fill="none" height="26" viewBox="0 0 140 26" width="140" xmlns="http://www.w3.org/2000/svg" xmlns:xlink="http://www.w3.org/1999/xlink"><clipPath id="a"><path d="m0 0h140v26h-140z"/></clipPath><g clip-path="url(#a)" fill="#2b2a35"><path d="m131.416 5.06354v7.82296c0 1.2191-.304 2.2351-.914 2.7431-.61.6096-1.422 1.0159-2.438 1.0159-.915 0-1.626-.3047-2.235-.9143-.61-.6096-.915-1.4224-.915-2.3367v-8.33096h-3.149v8.33096c0 1.8287.508 3.5558 1.625 4.6734 1.016 1.1176 2.439 1.6255 4.166 1.6255.508 0 1.016-.1016 1.422-.2031.508-.1016.914-.3048 1.219-.508.305-.1016.711-.3048.915-.508.101-.1016.203-.1016.304-.3048l.102-.1016v1.2192h3.149v-14.42675z"/><path d="m9.39867 16.6458c-3.45428 0-6.19739-2.7431-6.19739-6.1974 0-3.45423 2.74311-6.19734 6.19739-6.19734 2.03193 0 3.96223 1.01596 5.07983 2.64151l2.7431-1.62554c-1.6255-2.53992-4.5718-4.16547-7.82293-4.16547-5.18142 0-9.4484747 4.26706-9.4484747 9.44844 0 5.1815 4.2670547 9.4485 9.4484747 9.4485 3.25113 0 6.09583-1.6255 7.82293-4.1654l-2.7431-1.6256c-1.2192 1.4224-3.0479 2.4383-5.07983 2.4383z"/><path d="m139.95 1.10156h-3.149v18.38894h3.149z"/><path d="m83.7675 1.20317-5.1814 8.83893-5.1814-8.83893-4.0639-.10161v18.49054h3.1495v-13.7155l4.9782 8.4325h2.2352l5.0798-8.4325v13.7155h3.1495v-18.38893z"/><path d="m62.9405 8.31488h4.2671v-3.1495h-4.2671v-3.96226h-3.1495v12.39478.6096c0 3.1495 1.4224 5.4862 5.3846 5.4862h2.032v-3.2511h-1.8288c-2.2351 0-2.5399-1.1176-2.5399-2.2351v-.508z"/><path d="m47.7002 12.48c0-.1016 0-.1016 0-.2032v-7.21332h-3.1494v1.32075c-1.2192-.91436-2.6416-1.32075-4.1655-1.32075-4.0639 0-7.4165 3.35268-7.4165 7.41652 0 4.0639 3.3526 7.4166 7.4165 7.4166 1.6255 0 2.9463-.508 4.1655-1.3208v1.016h3.1494v-6.807c0-.2032 0-.2032 0-.3048zm-7.4165 4.1655c-2.2351 0-4.1655-1.8288-4.1655-4.1655s1.8288-4.16543 4.1655-4.16543c2.2351 0 4.1655 1.82873 4.1655 4.16543s-1.8288 4.1655-4.1655 4.1655z"/><path d="m57.4537 5.06351c-.6096 0-2.6415.1016-4.3687 1.21916v-1.21916h-3.1495v14.52829h3.1495v-7.9245c0-.9144.2032-1.6256.6096-2.03195 1.016-1.21916 3.1495-1.42235 3.3527-1.42235.1016 0 .3048-.1016.508-.1016h.8128v-3.14949s-.3048 0-.508 0c-.1016.1016-.4064.1016-.4064.1016z"/><path d="m96.6705 19.8966c-4.0639 0-7.4166-3.3527-7.4166-7.4166 0-4.06384 3.3527-7.41652 7.4166-7.41652 4.0635 0 7.4165 3.35268 7.4165 7.41652-.102 4.0639-3.353 7.4166-7.4165 7.4166zm0-11.58203c-2.2352 0-4.1655 1.82873-4.1655 4.16543s1.8287 4.1655 4.1655 4.1655c2.3367 0 4.1655-1.8288 4.1655-4.1655 0-2.2351-1.8288-4.16543-4.1655-4.16543z"/><path d="m116.481 5.06348v1.21916c-1.219-.81277-2.641-1.21916-4.165-1.21916-4.064 0-7.417 3.35268-7.417 7.41652 0 4.0639 3.353 7.4166 7.417 7.4166 1.524 0 2.946-.508 4.165-1.2192v.3048c0 .2032-.101.3048-.101.3048-.102 1.016-.711 2.0319-1.219 2.7431-.813.8128-1.829 1.1176-2.947 1.1176h-.101c-1.626-.1016-3.048-.8128-3.963-2.032l-2.235 2.2352c1.22 1.8287 3.658 2.9463 6.299 2.9463 2.032 0 3.759-.7112 5.283-2.2352 1.321-1.4223 2.032-3.0479 2.032-5.0798 0 0 0-.3048 0-.508 0-.1016 0-.6096 0-.6096v-12.80112zm-4.165 11.58202c-2.235 0-4.166-1.8288-4.166-4.1655s1.829-4.16543 4.166-4.16543 4.165 1.82873 4.165 4.16543-1.93 4.1655-4.165 4.1655z"/><path d="m31.3432 11.2612c0-3.75902-2.6416-6.19734-6.1974-6.19734-1.2192 0-2.5399.40639-3.5559 1.01597v-5.07983h-3.0479v18.4906h3.1495v-7.1118c0-.1016 0-.3048 0-.3048 0-1.2191.3048-2.1335.9144-2.74308.5079-.60958 1.2191-.91437 2.0319-1.01597h.3048.3048c.9143.1016 1.5239.40639 2.0319 1.01597.508.71118.9144 1.52398.9144 2.64148v.508 7.2134h3.1495v-8.1278z"/></g></svg>