<svg fill="none" height="19" viewBox="0 0 149 19" width="149" xmlns="http://www.w3.org/2000/svg" xmlns:xlink="http://www.w3.org/1999/xlink"><mask id="a" height="19" maskUnits="userSpaceOnUse" width="112" x="37" y="0"><path d="m37.0295 0h111.1055v19h-111.1067z" fill="#fff"/></mask><g mask="url(#a)"><path clip-rule="evenodd" d="m47.0536 12.8348c0 2.6632-1.596 4.6143-4.1964 4.6143-.5002.042-1.0036-.0213-1.4783-.1859s-.9104-.4268-1.2795-.7702c-.3692-.3434-.6637-.7604-.8649-1.2247-.2013-.4643-.3049-.9656-.3044-1.4724v-4.23958c.0003-.50641.1046-1.00727.3062-1.47098.2016-.46372.4961-.88022.8651-1.22324s.8043-.60512 1.2786-.76976c.4743-.16465.9773-.22826 1.4772-.18684 2.6004 0 4.1964 1.95113 4.1964 4.6143v2.3162zm1.7599 5.8486v-18.68449863h-1.7599v7.08162863c-.3972-.85549-1.0371-1.57252-1.8386-2.06004-.8016-.48752-1.7285-.72354-2.6631-.67807-3.5763 0-5.5314 2.98956-5.5314 7.33428 0 4.3435 1.9001 7.3319 5.5326 7.3319.9286.028 1.8453-.2166 2.639-.7041s1.4303-1.197 1.8327-2.0425v2.4214h1.7899zm11.4818-8.3328-5.2297.4944c-.4971.006-.9875.1165-1.4401.3242-.4526.2078-.8574.5084-1.1887.8827-.3312.3743-.5818.8141-.7356 1.2915-.1538.4773-.2076.9818-.1579 1.4812.006 1.0868.4166 2.1325 1.153 2.9243.9051.8462 2.1071 1.2899 3.3379 1.2331.9587.0359 1.9034-.241 2.6939-.7897.7906-.5488 1.3851-1.3401 1.6953-2.2567h.0838v2.7478h3.5499v-1.58h-2.0294v-7.9859c0-3.29904-1.9827-4.77508-4.9602-4.77508-2.9788 0-5.0716 1.75771-5.0716 4.36406h1.7599c0-1.86893 1.3014-2.80219 3.2566-2.80219 1.9539 0 3.2817.68181 3.2817 3.15518v1.29113zm0 1.5401v.683c0 2.8868-1.5218 4.8561-4.0109 4.8561-1.7623 0-2.8782-.6818-2.8782-2.1107v-1.5317c0-.8498.2958-1.2887 1.1338-1.3721l5.7541-.5246zm9.3218-1.4289c-1.4103-.2708-2.2508-.84987-2.2508-2.22316s1.2451-2.33435 3.0889-2.33435c1.845 0 3.1452.82083 3.2003 2.80219h1.7612c-.0551-3.04638-2.4891-4.36406-4.9603-4.36406-2.8495 0-4.795 1.67309-4.795 3.92403 0 2.25215 1.3278 3.35345 3.3835 3.79225l2.2783.4957c2.0007.4388 2.7657 1.0456 2.7657 2.4467 0 1.5897-1.5205 2.448-3.4122 2.448-1.8893 0-3.5487-1.0469-3.6037-3.0452h-1.7624c.0551 2.9618 2.361 4.6143 5.3398 4.6143 3.2541 0 5.1997-1.6996 5.1997-4.034 0-2.3356-1.299-3.4574-3.8995-4.0074zm17.6309 8.2204h1.7612v-9.33985c0-3.56862-1.8438-4.99873-4.4993-4.99873-.9109-.04486-1.8125.20209-2.576.70556-.7636.50347-1.35 1.23772-1.6755 2.09784v-7.14811863h-1.7432v18.68449863h1.7612v-8.1092c0-2.74658 1.6235-4.66991 3.9006-4.66991 2.2784 0 3.089 1.4011 3.089 3.73545zm14.431-5.9598c0 2.1953-.922 3.6254-3.1169 3.6254-.6929.0604-1.3812-.1595-1.9137-.6112-.5325-.4518-.8656-1.0985-.9262-1.7981-.0084-.0931-.0095-.1874-.0084-.2816v-3.96155c-.0101-.37222.0582-.74236.2004-1.08593.1421-.34357.355-.65273.6244-.90702.2693-.25429.5892-.4479.9382-.56803.3491-.12013.7194-.16402 1.0865-.12879 2.1667 0 3.1157 1.43011 3.1157 3.62542zm3.384 5.9598v-18.68208973h-3.384v6.54004973c-.415-.70147-1.008-1.27784-1.7187-1.66906-.7103-.39121-1.5114-.58297-2.3201-.55528-3.6875 0-5.4499 3.27003-5.4499 7.33308 0 4.0643 1.8438 7.3331 5.5326 7.3331.7907.0276 1.5743-.1587 2.2698-.5396.6953-.3809 1.2773-.9425 1.6863-1.6267v1.8689h3.384zm7.839-2.3453c-1.19 0-2.03-.4388-2.03-1.2608v-1.2053c0-.55.222-.8498.757-.9332l4.066-.3554v.5512c.038.3952-.004.7941-.124 1.1721-.12.3781-.316.7272-.575 1.0258-.259.2985-.577.5402-.932.7101-.356.1699-.742.2643-1.135.2774zm2.765-6.34296-3.816.32886c-2.897.2417-4.529 2.1095-4.529 4.3616-.014.5806.091 1.158.308 1.696.217.5379.541 1.0247.953 1.43.413.4052.903.72 1.441.9248.539.2047 1.113.2949 1.688.2649.863.0552 1.723-.1531 2.468-.5978.745-.4448 1.341-1.1054 1.709-1.8961h.111v2.1663h5.34v-2.6607h-2.335v-6.8665c0-3.12858-2.055-4.80168-5.366-4.80168-3.31 0-5.745 1.58848-5.856 4.67113h3.385c0-1.28867.977-1.97895 2.334-1.97895.285-.04446.577-.02218.853.06513s.528.23734.737.43852c.209.20119.37.44818.47.72196.1.27379.137.56708.107.8573v.87644zm11.868-.05561c-.922-.19584-1.521-.57905-1.521-1.48451 0-.90666.811-1.45791 1.983-1.45791.248-.02418.499.00133.738.07507s.461.19426.654.35468c.192.16042.352.3576.469.58027s.19.46647.214.71747c.008.08463.012.16925.008.25387h3.385c-.138-3.10199-2.361-4.67112-5.477-4.67112-3.384 0-5.368 1.86893-5.368 4.27823 0 2.19532 1.135 3.48522 3.467 4.00742l2.389.5235c1.217.243 2.057.6346 2.057 1.6441 0 1.0094-1.061 1.5401-2.361 1.5401-.303.0402-.612.0163-.905-.0702s-.566-.2337-.8-.4322-.425-.444-.56-.7209c-.135-.2768-.211-.5791-.225-.8874h-3.383c.137 3.0463 2.221 4.775 5.882 4.775 3.66 0 5.745-1.9257 5.745-4.364s-1.596-3.623-3.688-4.0909l-2.705-.57057zm11.988-9.93942863h-3.385v18.68449863h3.385v-8.1092c0-2.02729 1.116-3.42839 2.979-3.42839 1.623 0 2.249.93326 2.249 2.60635v8.93124h3.384v-9.18389c0-3.21321-1.437-5.15709-4.527-5.15709-.834-.03952-1.663.16179-2.388.58034s-1.317 1.03703-1.707 1.78302z" fill="#202020" fill-rule="evenodd"/></g><g clip-rule="evenodd" fill-rule="evenodd"><path d="m.134766 0v11.21h7.376324v-3.73669h14.75381v-7.47331z" fill="#8e8e8e"/><path d="m22.2675 7.47327v3.73543h-14.75383v7.4745h22.13013v-11.20993z" fill="#575757"/><path d="m7.5127 11.2087h14.7538v-3.73543h-14.7538z" fill="#222"/></g></svg>