<svg width="88" height="88" viewBox="0 0 88 88" fill="none" xmlns="http://www.w3.org/2000/svg">
<path fill-rule="evenodd" clip-rule="evenodd" d="M5.71113 87.9108H0V74.7007H5.71113C9.82113 74.7007 11.8761 76.7798 11.8761 80.9508C11.8761 85.5781 9.82113 87.9108 5.71113 87.9108ZM2.43322 85.7809H5.33291C8.06871 85.7809 9.43031 84.1709 9.43031 80.9381C9.43031 78.187 8.06871 76.8178 5.33291 76.8178H2.43322V85.7809Z" fill="#774AA4"/>
<path fill-rule="evenodd" clip-rule="evenodd" d="M14.423 87.9113H11.9268L17.5118 74.7012H20.1341L25.8453 87.9113H23.223L21.5588 84.2981H17.3479L18.18 82.181H20.9158L18.7599 77.2113L14.423 87.9113Z" fill="#774AA4"/>
<path fill-rule="evenodd" clip-rule="evenodd" d="M24.459 74.7012H34.4566V76.8183H30.6744V87.9113H28.2412V76.8183H24.459V74.7012Z" fill="#774AA4"/>
<path fill-rule="evenodd" clip-rule="evenodd" d="M35.7042 87.9113H33.1953L38.793 74.7012H41.4153L47.1138 87.9113H44.4915L42.8399 84.2981H38.6165L39.4612 82.181H42.197L40.0411 77.2113L35.7042 87.9113Z" fill="#774AA4"/>
<path fill-rule="evenodd" clip-rule="evenodd" d="M54.4504 87.9113H48.7393V74.7012H54.4504C58.5604 74.7012 60.6154 76.7803 60.6154 80.9512C60.6154 85.5786 58.5604 87.9113 54.4504 87.9113ZM51.1725 85.7814H54.0722C56.808 85.7814 58.1696 84.1714 58.1696 80.9386C58.1696 78.1875 56.808 76.8183 54.0722 76.8183H51.1725V85.7814Z" fill="#774AA4"/>
<path fill-rule="evenodd" clip-rule="evenodd" d="M62.2676 81.3192C62.2676 76.844 64.4739 74.6001 68.8738 74.6001C73.2108 74.6001 75.3792 76.844 75.3792 81.3192C75.3792 85.7691 73.2108 88.0003 68.8738 88.0003C64.663 88.0003 62.4567 85.7691 62.2676 81.3192ZM68.8738 85.8705C71.5214 85.8705 72.8452 84.3365 72.8452 81.2559C72.8452 78.2259 71.5214 76.7173 68.8738 76.7173C66.1506 76.7173 64.7891 78.2259 64.7891 81.2559C64.8017 84.3365 66.1633 85.8705 68.8738 85.8705Z" fill="#774AA4"/>
<path fill-rule="evenodd" clip-rule="evenodd" d="M85.5665 82.5616V85.655C84.9992 85.8071 84.4949 85.8705 84.0536 85.8705C81.0657 85.8705 79.578 84.2858 79.578 81.1164C79.578 78.1879 81.1539 76.7299 84.3184 76.7299C85.6422 76.7299 86.8651 76.9708 87.9997 77.4652V75.2467C86.8651 74.8156 85.5791 74.6001 84.1293 74.6001C79.4015 74.6001 77.0439 76.768 77.0439 81.1164C77.0439 85.7057 79.3637 88.0003 84.0158 88.0003C85.617 88.0003 86.9407 87.7721 87.9997 87.3031V80.3938H84.0536L83.2342 82.5616H85.5665Z" fill="#774AA4"/>
<path d="M74.4209 35.0959L54.9425 38.6456C54.4634 39.2668 53.2657 40.3698 52.6984 40.6613C50.24 41.9037 48.5758 41.5488 47.1385 41.1684C46.2182 40.9276 45.6761 40.8008 44.907 40.4585L40.1541 41.1177L43.0412 65.332L76.4254 59.2848L74.4209 35.0959ZM44.7179 63.0247L44.4406 60.3877L49.8869 52.0205L56.0772 53.8334L61.3975 44.8957L67.7768 49.13L72.6306 38.9118L74.3578 57.5353L44.7179 63.0247ZM43.3185 39.2288C40.9105 37.6694 38.4269 35.4508 37.33 34.2211C37.1535 34.0816 37.1787 33.4731 37.1787 33.4731C38.1621 34.2465 42.2343 37.175 46.546 38.5061C48.0715 38.9752 50.4038 39.1527 52.421 37.999C53.9717 37.1116 55.825 35.5776 56.9345 33.9929L57.1362 34.3479C57.1236 34.5887 56.6193 35.7297 56.3545 36.1861C56.821 36.4524 57.174 36.5284 57.7035 36.6806L61.2714 36.1227C62.5447 34.0436 63.4651 30.684 62.4943 27.4893C61.9396 25.6637 59.0273 22.0125 58.813 21.8097C58.0817 21.0998 58.939 18.3741 57.4892 15.3948C55.9511 12.2508 51.9672 8.95459 50.2273 7.52201C50.7442 7.90234 53.8835 9.17011 55.3585 10.9577C55.4972 10.7675 55.5477 9.81666 55.6737 9.57579C54.413 7.91502 54.3121 4.96113 54.3121 4.17512C54.3121 2.72987 53.5809 1.08178 53.5809 1.08178C53.5809 1.08178 54.8416 2.08331 55.1694 3.80747C55.5603 5.84857 56.3797 7.45863 57.464 8.82781C59.519 11.4014 61.3723 12.7198 62.3052 11.769C63.4273 10.628 61.1705 5.51895 58.2834 2.66648C54.9173 -0.64238 54.0348 -0.21134 52.0554 0.498607C50.4795 1.05642 49.6222 5.56966 45.5122 5.48092C44.8188 5.40485 43.0285 5.35414 42.1334 5.36682C42.5999 4.72026 42.9907 4.21315 42.9907 4.21315C42.9907 4.21315 41.6165 4.77097 40.444 5.48092L40.3558 5.34146C40.7466 4.50474 41.1753 3.97228 41.1753 3.97228C41.1753 3.97228 40.0784 4.63151 39.0698 5.4302C39.2589 4.42867 39.9397 3.79479 39.9397 3.79479C39.9397 3.79479 38.5529 4.04834 36.7753 6.01338C34.7581 6.57119 34.279 6.92617 32.6653 7.64879C30.0556 7.0783 28.8201 6.15283 27.6476 4.45403C26.7524 3.16091 25.1639 2.95807 23.5376 3.62998C21.1674 4.61884 18.1794 5.96267 18.1794 5.96267C18.1794 5.96267 19.1502 5.92463 20.1714 5.97534C18.7846 6.5078 17.4356 7.23043 17.4356 7.23043C17.4356 7.23043 18.0912 7.20507 18.8981 7.21775C18.3433 7.68682 18.0281 7.90234 17.5112 8.25732C16.2379 9.18278 15.2041 10.2604 15.2041 10.2604C15.2041 10.2604 16.074 9.86738 16.8431 9.63918C16.3009 10.8943 15.2293 11.8071 15.4184 13.341C15.6075 14.7356 17.3221 17.6261 19.5158 19.3883C19.7049 19.5404 22.7181 22.3422 24.9874 21.1885C27.2567 20.0348 28.1519 19.0206 28.5301 17.4486C28.9713 15.6484 28.7192 14.2792 27.7862 10.3618C27.4711 9.06868 26.6768 6.40638 26.286 5.13862L26.3742 5.07523C27.1181 6.64726 29.0218 10.8055 29.7782 13.5946C30.9759 17.943 30.5977 20.1489 30.0556 20.9603C28.404 23.4071 24.1805 23.724 22.2516 22.3675C21.9616 27.0582 22.9955 29.112 23.3485 30.1516C23.172 31.3433 23.941 33.5619 23.941 33.5619C23.941 33.5619 24.0293 32.5477 24.3823 32.0279C24.4705 33.2196 25.0757 34.6268 25.0757 34.6268C25.0757 34.6268 25.0378 33.752 25.3152 33.004C25.6934 33.6506 25.9708 33.8027 26.3364 34.2972C26.702 35.5649 27.4206 36.4904 27.4206 36.4904C27.4206 36.4904 27.3072 35.8058 27.3702 35.1085C29.1352 36.8073 29.4378 39.2922 29.6143 41.2065C30.106 46.455 21.3817 50.6259 19.6923 53.9221C18.4064 55.8618 17.6499 58.9425 19.8184 60.7554C25.0631 65.1418 23.0459 66.3462 25.6808 68.2732C29.2865 70.9102 33.8 69.7311 35.3254 67.5886C37.4687 64.5967 36.914 61.7696 36.1197 59.1326C35.5019 57.0662 33.8126 53.6306 31.7324 52.3121C29.6017 50.9556 27.5341 50.702 25.7691 50.8795L25.933 50.6893C28.4544 50.1822 31.102 50.4611 33.0057 51.7035C35.1742 53.1108 37.1535 55.5068 38.1999 59.196C39.3724 59.0312 39.5489 58.9552 40.6205 58.803L38.1999 39.8246L43.3185 39.2288ZM55.4846 15.4709C57.7161 16.5105 57.4261 18.5008 57.4892 19.6672C57.5018 19.9968 57.5018 20.225 57.4766 20.3898C57.1614 20.225 56.6823 20.0982 55.9007 20.1363C55.6737 20.1489 55.4468 20.1743 55.2451 20.2123C54.4256 19.7686 53.9339 18.8938 53.48 17.9811C53.4422 17.8923 53.4044 17.8162 53.3792 17.7402C53.3666 17.7021 53.354 17.6641 53.3414 17.6388C53.3414 17.6261 53.3288 17.6134 53.3288 17.588C53.0766 16.802 53.2531 16.6372 53.354 16.3964C53.4674 16.1428 53.8709 15.94 53.2657 15.7371C53.2153 15.7244 53.1523 15.7118 53.0766 15.6991C53.4674 15.192 54.6399 15.0779 55.4846 15.4709ZM52.7362 28.5035C53.1649 28.1612 55.1442 27.5273 56.9849 27.3118C57.9431 27.1977 59.3173 27.1343 59.6072 27.2991C60.1872 27.6161 60.1872 28.6176 59.7837 29.5431C59.2038 30.8869 58.3843 32.3575 57.464 32.4843C55.9511 32.6871 54.5265 31.8631 52.8875 30.6333C52.3076 30.1769 51.9419 29.112 52.7362 28.5035ZM38.4016 18.336C40.797 16.6879 43.8858 17.3345 43.3689 17.8289C42.3856 18.7671 43.6967 18.5008 43.8354 20.2377C43.9363 21.5181 43.5202 22.2281 43.1672 22.6337C42.4234 22.7352 41.5031 22.9127 40.4188 23.2803C39.7758 23.4958 39.2085 23.724 38.7168 23.9649C38.5908 23.8762 38.4395 23.7747 38.2756 23.6353C36.5736 22.152 36.6366 19.5531 38.4016 18.336Z" fill="#774AA4"/>
</svg>
