<svg width="74" height="90" viewBox="0 0 74 90" fill="none" xmlns="http://www.w3.org/2000/svg">
<path d="M69.2458 33.6984C69.2458 28.2814 65.8956 23.5606 60.8484 21.7114C61.066 20.5802 61.1965 19.4272 61.1965 18.2524C61.1965 8.20161 53.0166 0 42.9441 0C37.0703 0 31.6098 2.82814 28.1725 7.57072C26.4756 6.26542 24.4089 5.54751 22.2552 5.54751C16.9252 5.54751 12.5742 9.89849 12.5742 15.2285C12.5742 16.4032 12.7918 17.5345 13.1834 18.6005C8.15798 20.4061 4.7207 25.2575 4.7207 30.6309C4.7207 36.0697 8.09272 40.8122 13.1616 42.6614C12.9441 43.7927 12.8353 44.9457 12.8353 46.1204C12.8353 56.1495 20.9934 64.3293 31.0442 64.3293C36.9398 64.3293 42.4002 61.5012 45.8158 56.7369C47.5126 58.0639 49.6011 58.8036 51.7549 58.8036C57.0848 58.8036 61.4358 54.4526 61.4358 49.1226C61.4358 47.9479 61.2183 46.8166 60.8267 45.7506C65.7868 43.9232 69.2458 39.0719 69.2458 33.6984Z" fill="white"/>
<path d="M30.0649 27.6943L44.1839 34.1338L58.4333 21.6465C58.6291 20.624 58.7379 19.5797 58.7379 18.5137C58.7379 9.72475 51.5805 2.56738 42.7915 2.56738C37.5268 2.56738 32.632 5.15622 29.6516 9.50721L27.2803 21.7987L30.0649 27.6943Z" fill="#FFD10C"/>
<path d="M15.4462 42.6615C15.2504 43.684 15.1416 44.75 15.1416 45.8377C15.1416 54.6484 22.3207 61.8276 31.1315 61.8276C36.4397 61.8276 41.3563 59.217 44.3367 54.8225L46.6863 42.5527L43.5535 36.5483L29.3476 30.1089L15.4462 42.6615Z" fill="#23BAB0"/>
<path d="M15.3367 18.209L25.0177 20.4933L27.1497 9.4853C25.8226 8.48457 24.191 7.91895 22.5159 7.91895C18.3172 7.91895 14.8799 11.3345 14.8799 15.5549C14.8799 16.4904 15.0322 17.3823 15.3367 18.209Z" fill="#EF5197"/>
<path d="M14.5101 20.5156C10.1809 21.9515 7.17871 26.1066 7.17871 30.6534C7.17871 35.0914 9.91983 39.0508 14.0533 40.6389L27.6283 28.3692L25.1265 23.0392L14.5101 20.5156Z" fill="#16A7E0"/>
<path d="M46.7949 54.8229C48.122 55.8454 49.7536 56.411 51.407 56.411C55.6057 56.411 59.0429 52.9955 59.0429 48.775C59.0429 47.8395 58.8907 46.9476 58.5861 46.1209L48.9051 43.8584L46.7949 54.8229Z" fill="#92C740"/>
<path d="M48.7527 41.3126L59.4126 43.8144C63.7418 42.3786 66.744 38.2452 66.744 33.6767C66.744 29.2386 63.9811 25.2792 59.8694 23.7129L45.9463 35.9174L48.7527 41.3126Z" fill="#0A79A0"/>
<path d="M10.4859 87.8456L11.3343 87.7586L11.3996 89.4772C9.20234 89.7818 7.30966 89.9341 5.7433 89.9341C3.65483 89.9341 2.17549 89.3249 1.3053 88.1284C0.435099 86.9101 0 85.0392 0 82.4939C0 77.4032 2.02321 74.8579 6.06963 74.8579C8.02757 74.8579 9.48515 75.4018 10.4424 76.4895C11.3996 77.5773 11.8999 79.2959 11.8999 81.6454L11.7912 83.2988H2.219C2.219 84.9087 2.50182 86.0834 3.0892 86.8666C3.67658 87.6498 4.67731 88.0196 6.11314 88.0196C7.52721 88.0196 8.98479 87.9761 10.4859 87.8456ZM9.7027 81.5584C9.7027 79.7745 9.41989 78.5127 8.85426 77.7948C8.28863 77.0552 7.35317 76.6853 6.06963 76.6853C4.78609 76.6853 3.80711 77.0769 3.17622 77.8383C2.52357 78.6215 2.19725 79.8398 2.17549 81.5584H9.7027Z" fill="#231F20"/>
<path d="M14.9023 89.8261V70.7471H17.0778V89.8261H14.9023Z" fill="#231F20"/>
<path d="M30.7833 79.5359V86.8456C30.7833 87.5635 32.589 87.5417 32.589 87.5417L32.4802 89.4562C30.9574 89.4562 29.6956 89.5867 28.9342 88.847C27.1938 89.6302 25.4534 89.9348 23.713 89.9348C22.3859 89.9348 21.3634 89.565 20.6673 88.8035C19.9711 88.0421 19.623 86.9761 19.623 85.562C19.623 84.148 19.9711 83.1037 20.689 82.4511C21.4069 81.7767 22.5165 81.3633 24.0611 81.2111L28.6078 80.776V79.5359C28.6078 78.557 28.3903 77.839 27.9769 77.4257C27.5418 76.9906 26.9762 76.7948 26.2365 76.7948H20.515V74.8804H26.0843C27.7376 74.8804 28.9124 75.2502 29.6738 76.0116C30.3917 76.7513 30.7833 77.9261 30.7833 79.5359ZM21.842 85.4533C21.842 87.2372 22.5817 88.1291 24.0393 88.1291C25.3446 88.1291 26.6499 87.9116 27.9334 87.4547L28.6078 87.2154V82.4293L24.3221 82.8427C23.4519 82.9297 22.821 83.169 22.4294 83.6041C22.0378 84.0174 21.842 84.6266 21.842 85.4533Z" fill="#231F20"/>
<path d="M39.2677 76.7944C37.1575 76.7944 36.1133 77.534 36.1133 78.9916C36.1133 79.666 36.3526 80.1446 36.8312 80.4274C37.3098 80.7103 38.4193 80.9931 40.1379 81.2976C41.8566 81.6022 43.0748 82.0156 43.7928 82.5594C44.5107 83.1033 44.8587 84.1258 44.8587 85.6051C44.8587 87.0845 44.3801 88.194 43.4229 88.8901C42.4657 89.5863 41.0734 89.9343 39.2242 89.9343C38.0277 89.9343 34.0248 89.4992 34.0248 89.4992L34.1336 87.6066C36.4396 87.8241 38.093 87.9982 39.2242 87.9982C40.3555 87.9982 41.2039 87.8241 41.7913 87.4543C42.3787 87.1062 42.6833 86.4971 42.6833 85.6486C42.6833 84.8002 42.4222 84.2346 41.9218 83.93C41.4215 83.6254 40.312 83.3426 38.6151 83.0815C36.9182 82.8205 35.6999 82.4071 34.982 81.885C34.2641 81.3629 33.916 80.4057 33.916 78.9916C33.916 77.5775 34.4164 76.5333 35.4171 75.8589C36.4178 75.1845 37.6579 74.8364 39.1372 74.8364C40.312 74.8364 44.4019 75.141 44.4019 75.141V77.0337C42.2699 76.9684 40.5078 76.7944 39.2677 76.7944Z" fill="#231F20"/>
<path d="M55.3449 77.0338H50.7329V83.9736C50.7329 85.627 50.8634 86.7365 51.1027 87.2586C51.342 87.7807 51.9294 88.0418 52.8214 88.0418L55.4102 87.8678L55.5625 89.6734C54.2572 89.891 53.2782 89.9998 52.6038 89.9998C51.1027 89.9998 50.0585 89.6299 49.4711 88.8902C48.8837 88.1506 48.6009 86.7583 48.6009 84.6915V77.0556H46.5342V75.1629H48.6009V70.7031H50.7546V75.1411H55.3667V77.0338H55.3449Z" fill="#231F20"/>
<path d="M58.3682 73.2916V70.7681H60.5437V73.2916H58.3682ZM58.3682 89.8254V75.1408H60.5437V89.8254H58.3682Z" fill="#231F20"/>
<path d="M69.9636 74.8579C70.5945 74.8579 71.6823 74.9667 73.2051 75.206L73.9013 75.293L73.8142 77.0552C72.2696 76.8811 71.1166 76.7941 70.3987 76.7941C68.7453 76.7941 67.6358 77.1857 67.0485 77.9689C66.4611 78.752 66.1565 80.2096 66.1565 82.3198C66.1565 84.4301 66.4393 85.9094 66.9832 86.7361C67.5271 87.5628 68.6801 87.9761 70.4205 87.9761L73.836 87.7151L73.923 89.5207C72.1174 89.7818 70.7903 89.9341 69.8983 89.9341C67.6358 89.9341 66.0695 89.3467 65.221 88.1937C64.3508 87.0407 63.9375 85.0827 63.9375 82.3198C63.9375 79.557 64.3944 77.6208 65.3298 76.5113C66.2653 75.4235 67.8099 74.8579 69.9636 74.8579Z" fill="#231F20"/>
</svg>
