<svg fill="none" height="33" viewBox="0 0 97 33" width="97" xmlns="http://www.w3.org/2000/svg" xmlns:xlink="http://www.w3.org/1999/xlink"><clipPath id="a"><path d="m0 0h97v33h-97z"/></clipPath><g clip-path="url(#a)" fill="#000"><path d="m93.8021 6.97806c.736.295 1.408.813 2.01 1.55.484.602.812 1.341.979 2.21704.106.58.159 1.429.159 2.547l-.03 10.873h-4.623v-10.984c0-.654-.104-1.192-.314-1.614-.398-.801-1.141-1.203-2.216-1.203-1.244 0-2.104.518-2.58 1.552-.242.549-.363 1.207-.363 1.978v10.271h-4.543v-10.272c0-1.024-.104-1.768-.315-2.231-.379-.833-1.123-1.25-2.23-1.25-1.287 0-2.15.417-2.596 1.25-.242.475-.363 1.182-.363 2.121v10.382h-4.572v-17.21904h4.383v2.516c.56-.896 1.088-1.535 1.584-1.914.875-.676 2.01-1.014 3.4-1.014 1.318 0 2.385.29 3.197.872.654.538 1.148 1.229 1.486 2.072.592-1.013 1.324-1.756 2.201-2.23.928-.474 1.961-.712 3.102-.712.757-.002 1.505.146 2.244.442z"/><path d="m14.4566 4.77905h-10.09004v4.955h10.21304v4.04995h-10.21304v5.997h10.23004v4.194h-14.995038v-23.325952h14.855038z"/><path d="m69.8716 4.77905h-10.089v4.955h10.214v4.04995h-10.214v5.997h10.229v4.194h-14.993v-23.325952h14.853z"/><path d="m23.7353 24.283-7.457-18.00798h5.017l4.884 12.72398 4.677-12.72398h4.796l-6.979 17.58998-3.405 8.835h-4.896z"/><path d="m47.8822 7.07599c1.204.539 2.1951 1.389 2.9801 2.551.705 1.02501 1.165 2.21401 1.375 3.56501.121.793.1689 1.934.147 3.424h-12.5611c.07 1.729.6721 2.943 1.8051 3.641.688.434 1.516.647 2.484.647 1.028 0 1.8629-.263 2.5059-.791.35-.284.658-.681.929-1.187h4.604c-.122 1.022-.681 2.062-1.672 3.119-1.546 1.676-3.709 2.516-6.489 2.516-2.297 0-4.3209-.707-6.077-2.125-1.7539-1.414-2.632-3.715-2.632-6.903 0-2.988.792-5.28 2.376-6.87501 1.584-1.595 3.6411-2.392 6.1701-2.392 1.5 0 2.8519.271 4.0549.81zm-6.7469 3.89501c-.637.657-1.038 1.547-1.203 2.671h7.772c-.081-1.198-.483-2.106-1.202-2.727-.72-.619-1.611-.92901-2.675-.92901-1.156.001-2.054.32801-2.692.98501z"/></g></svg>