<svg width="193" height="22" viewBox="0 0 193 22" fill="none" xmlns="http://www.w3.org/2000/svg">
<path d="M49 17.9001V4.1001H57.4V5.3001H50.5V10.2001H56.6V11.4001H50.5V18.0001H49V17.9001Z" fill="#46454A" stroke="#46454A" stroke-width="0.2714" stroke-miterlimit="10"/>
<path d="M76.1002 8.2C76.1002 9.2 75.8002 10.1 75.2002 10.6C74.6002 11.2 73.9002 11.6 72.9002 11.9C73.1002 12.2 73.4002 12.5 73.8002 13C74.2002 13.5 74.5002 13.9 74.9002 14.5C75.3002 15 75.7002 15.6 76.0002 16.2C76.4002 16.8 76.7002 17.3 76.9002 17.9H75.4002C75.1002 17.4 74.8002 16.8 74.4002 16.3C74.1002 15.8 73.7002 15.3 73.3002 14.8C72.9002 14.3 72.6002 13.8 72.3002 13.4C72.0002 13 71.7002 12.6 71.4002 12.3C70.9002 12.3 70.5002 12.4 70.0002 12.4H67.6002V18H66.2002V4.3C66.7002 4.2 67.3002 4.1 68.0002 4C68.8002 4 69.5002 4 70.0002 4C72.0002 4 73.5002 4.4 74.6002 5.1C75.6002 5.7 76.1002 6.8 76.1002 8.2ZM70.2002 5.1C69.7002 5.1 69.2002 5.1 68.8002 5.1C68.4002 5.1 68.1002 5.2 67.8002 5.2V11.1H69.8002C70.5002 11.1 71.1002 11.1 71.7002 11C72.3002 10.9 72.8002 10.8 73.2002 10.6C73.6002 10.4 74.0002 10.1 74.2002 9.7C74.5002 9.3 74.6002 8.8 74.6002 8.1C74.6002 7.5 74.5002 7 74.2002 6.6C73.9002 6.2 73.6002 5.9 73.2002 5.7C72.8002 5.5 72.3002 5.3 71.8002 5.2C71.3002 5.2 70.8002 5.1 70.2002 5.1Z" fill="#46454A" stroke="#46454A" stroke-width="0.2714" stroke-miterlimit="10"/>
<path d="M85.7998 17.9001V4.1001H94.2998V5.3001H87.2998V10.0001H93.5998V11.2001H87.2998V16.7001H94.8998V17.9001H85.7998Z" fill="#46454A" stroke="#46454A" stroke-width="0.2714" stroke-miterlimit="10"/>
<path d="M103.9 4.1001H105.3V17.9001H103.9V4.1001Z" fill="#46454A" stroke="#46454A" stroke-width="0.2714" stroke-miterlimit="10"/>
<path d="M124.7 12.8001C124.7 11.2001 126.1 11.3001 126.1 11.3001V17.5001C125.8 17.6001 125.3 17.7001 124.5 17.9001C123.7 18.1001 122.8 18.1001 121.6 18.1001C120.6 18.1001 119.7 17.9001 118.9 17.6001C118.1 17.3001 117.4 16.8001 116.8 16.2001C116.2 15.6001 115.7 14.8001 115.4 14.0001C115.1 13.1001 114.9 12.1001 114.9 10.9001C114.9 9.7001 115.1 8.7001 115.5 7.8001C115.9 6.9001 116.4 6.2001 117 5.5001C117.6 4.9001 118.4 4.4001 119.2 4.1001C120 3.8001 120.9 3.6001 121.9 3.6001C123 3.6001 123.9 3.7001 124.6 3.9001C125.3 4.1001 125.8 4.3001 126.1 4.5001L125.6 5.7001C125.2 5.4001 124.7 5.2001 124 5.1001C123.3 4.9001 122.6 4.9001 121.8 4.9001C121.1 4.9001 120.4 5.0001 119.7 5.3001C119 5.6001 118.5 5.9001 118 6.4001C117.5 6.9001 117.1 7.5001 116.9 8.3001C116.6 9.0001 116.5 9.9001 116.5 10.9001C116.5 11.8001 116.6 12.6001 116.8 13.4001C117 14.1001 117.4 14.8001 117.8 15.3001C118.3 15.8001 118.8 16.2001 119.5 16.5001C120.2 16.8001 121 16.9001 121.9 16.9001C122.6 16.9001 123.2 16.9001 123.7 16.8001C124.2 16.7001 124.5 16.7001 124.7 16.6001C124.7 16.6001 124.7 14.4001 124.7 12.8001Z" fill="#46454A" stroke="#46454A" stroke-width="0.2714" stroke-miterlimit="10"/>
<path d="M135.9 17.9001V4.1001H144.4V5.3001H137.4V10.0001H143.7V11.2001H137.4V16.7001H145V17.9001H135.9Z" fill="#46454A" stroke="#46454A" stroke-width="0.2714" stroke-miterlimit="10"/>
<path d="M154 4.1001H155.4V17.9001H154V4.1001Z" fill="#46454A" stroke="#46454A" stroke-width="0.2714" stroke-miterlimit="10"/>
<path d="M168.8 17.0002C169.9 17.0002 170.8 16.8002 171.5 16.4002C172.1 16.0002 172.5 15.4002 172.5 14.5002C172.5 14.0002 172.4 13.6002 172.2 13.2002C172 12.9002 171.7 12.6002 171.4 12.3002C171.1 12.1002 170.7 11.9002 170.2 11.7002C169.8 11.5002 169.3 11.4002 168.8 11.2002C168.2 11.0002 167.6 10.7002 167.2 10.5002C166.7 10.3002 166.3 10.0002 166 9.7002C165.7 9.4002 165.4 9.1002 165.2 8.7002C165 8.3002 164.9 7.9002 164.9 7.3002C164.9 6.1002 165.3 5.2002 166.2 4.6002C167 4.0002 168.2 3.7002 169.7 3.7002C170.1 3.7002 170.5 3.7002 170.9 3.8002C171.3 3.9002 171.6 3.9002 172 4.0002C172.3 4.1002 172.6 4.2002 172.9 4.3002C173.2 4.4002 173.4 4.5002 173.6 4.6002L173.1 5.7002C172.7 5.4002 172.2 5.2002 171.6 5.1002C170.8 5.0002 170.2 5.0002 169.5 5.0002C169 5.0002 168.6 5.0002 168.2 5.1002C167.8 5.2002 167.5 5.3002 167.2 5.5002C166.9 5.7002 166.7 5.9002 166.5 6.2002C166.3 6.5002 166.3 6.8002 166.3 7.3002C166.3 7.7002 166.4 8.10019 166.6 8.4002C166.8 8.7002 167 8.9002 167.3 9.2002C167.6 9.4002 168 9.6002 168.4 9.8002C168.8 10.0002 169.3 10.2002 169.7 10.3002C170.3 10.5002 170.8 10.8002 171.3 11.0002C171.8 11.2002 172.3 11.5002 172.6 11.8002C173 12.1002 173.3 12.5002 173.5 12.9002C173.7 13.3002 173.8 13.9002 173.8 14.5002C173.8 15.7002 173.3 16.7002 172.4 17.3002C171.5 17.9002 170.2 18.2002 168.6 18.2002C168 18.2002 167.5 18.2002 167.1 18.1002C166.6 18.0002 166.2 18.0002 165.8 17.9002C165.4 17.8002 165.1 17.7002 164.9 17.6002C164.6 17.5002 164.4 17.4002 164.3 17.3002L164.8 16.1002C164.9 16.2002 165.1 16.3002 165.4 16.4002C165.6 16.5002 165.9 16.6002 166.2 16.7002C166.5 16.8002 166.9 16.9002 167.3 16.9002C167.8 17.0002 168.3 17.0002 168.8 17.0002Z" fill="#46454A" stroke="#46454A" stroke-width="0.2714" stroke-miterlimit="10"/>
<path d="M192.2 4.1001V5.3001H187.5V17.9001H186.1V5.3001H181.4V4.1001H192.2Z" fill="#46454A" stroke="#46454A" stroke-width="0.2714" stroke-miterlimit="10"/>
<path d="M28.7 8.69988C28.5 8.59988 28.3 8.69987 28.2 8.89987L24.9 13.0999C24.8 13.1999 24.8 13.2999 24.8 13.3999V18.1999H0.5C0.2 18.1999 0 18.3999 0 18.6999V21.5999C0 21.7999 0.2 21.9999 0.5 21.9999H28.6C28.9 21.9999 29.1 21.7999 29.1 21.4999V9.09988C29 8.89988 28.9 8.69988 28.7 8.69988Z" fill="#A5ABAF"/>
<path d="M0.5 3.9H23.4C23.5 3.9 23.7 3.8 23.8 3.7L26 0.7C26.1 0.6 26.1 0.4 26 0.2C25.9 0.1 25.8 0 25.6 0H0.5C0.2 0 0 0.2 0 0.5V3.4C0 3.6 0.2 3.9 0.5 3.9Z" fill="#A5ABAF"/>
<path d="M0.5 12.6002H14.6C14.7 12.6002 14.9 12.5002 15 12.4002L17.3 9.5002C17.4 9.4002 17.4 9.2002 17.4 9.0002C17.3 8.8002 17.2 8.7002 17 8.7002H0.5C0.2 8.8002 0 9.0002 0 9.3002V12.2002C0 12.4002 0.2 12.6002 0.5 12.6002Z" fill="#A5ABAF"/>
</svg>
