<svg width="72" height="72" viewBox="0 0 72 72" fill="none" xmlns="http://www.w3.org/2000/svg">
<path fill-rule="evenodd" clip-rule="evenodd" d="M69.036 31.2046L51.3691 22.3703C50.6234 22.003 50.0059 21.3876 49.6343 20.6398L40.7957 2.96401C39.8808 1.13603 38.0438 0.000264809 36.0005 0H35.9997C33.9559 0 32.1189 1.1355 31.2048 2.96401L22.3704 20.6307C22.0031 21.3762 21.3877 21.9937 20.6399 22.3658L2.96403 31.204C1.13604 32.1179 0.000264857 33.9557 4.62963e-08 35.9992C-0.000264765 38.0435 1.13551 39.8808 2.96403 40.7949L20.6309 49.6292C21.3763 49.9965 21.9939 50.6119 22.3659 51.36L31.2043 69.0357C32.1184 70.8637 33.9557 71.9995 35.9995 71.9995V72C38.0438 72 39.8808 70.8642 40.7952 69.0357L49.6298 51.3687C49.9968 50.6236 50.6125 50.006 51.3604 49.634L69.036 40.7954C70.8642 39.8816 72 38.0441 72 36.0003C72.0005 33.9562 70.8648 32.1184 69.036 31.2046ZM44.4255 41.5149C44.4255 42.3607 43.7399 43.0471 42.8936 43.0471C42.0475 43.0471 41.3616 42.3607 41.3616 41.5149V33.6721L36.9565 37.1959C36.3969 37.6445 35.6023 37.6445 35.043 37.1959L30.6381 33.6723V41.5149C30.6381 42.3607 29.9522 43.0471 29.1062 43.0471C28.2601 43.0471 27.5742 42.3607 27.5742 41.5149V30.4851C27.5742 29.8962 27.9119 29.3594 28.4426 29.1046C28.9722 28.8486 29.603 28.9206 30.0629 29.2889L35.9997 34.038L41.9368 29.2887C42.396 28.9203 43.0265 28.8488 43.5572 29.1044C44.0879 29.3591 44.4255 29.8959 44.4255 30.4848V41.5149Z" fill="#594EFC"/>
<path fill-rule="evenodd" clip-rule="evenodd" d="M67.5315 28.7395L68.3571 27.7878C69.6955 26.2439 70.0416 24.1117 69.2601 22.2231C68.4779 20.3342 66.7251 19.0711 64.6869 18.9267L63.4303 18.8375L61.1874 25.5671L67.5315 28.7395ZM53.1631 8.56953L53.0736 7.31328C52.9287 5.27504 51.6656 3.52254 49.7772 2.73976C49.1157 2.46568 48.4216 2.32666 47.7146 2.32666C46.4345 2.32666 45.1912 2.79405 44.2127 3.64276L43.261 4.46817L46.4329 10.8125L53.1631 8.56953ZM51.0051 19.9561C51.2292 20.4068 51.6004 20.7762 52.0503 20.9981L59.8032 24.8749L62.7511 16.0308C63.3975 14.0921 62.9015 11.9898 61.4564 10.5442C60.4411 9.52867 59.0993 8.96966 57.6792 8.96966C57.1005 8.96966 56.5254 9.0634 55.9693 9.24903L47.1254 12.1966L51.0051 19.9561ZM28.7401 4.46844L27.7886 3.64356C26.8093 2.79431 25.5653 2.32666 24.2857 2.32666C23.5789 2.32666 22.8856 2.46568 22.2239 2.73976C20.3352 3.52201 19.0724 5.27451 18.9275 7.31354L18.8383 8.56953L25.5674 10.8125L28.7401 4.46844ZM12.1971 24.8746L19.9563 20.9949C20.407 20.7706 20.7764 20.3996 20.9986 19.9494L24.8754 12.1969L16.031 9.24903C15.4752 9.0634 14.8995 8.96966 14.3209 8.96966C12.9009 8.96966 11.5599 9.52841 10.5446 10.544C9.09878 11.9893 8.60253 14.0916 9.24946 16.03L12.1971 24.8746ZM4.46909 28.739L10.8132 25.5668L8.57022 18.837L7.31448 18.9262C5.27491 19.0719 3.52239 20.3347 2.74093 22.2226C1.95842 24.1112 2.30426 26.2432 3.64367 27.7873L4.46909 28.739ZM20.9952 52.0438C20.7709 51.5928 20.3999 51.2231 19.9497 51.0015L12.1968 47.1244L9.24946 55.9688C8.60253 57.9077 9.09878 60.01 10.5439 61.4548C11.5594 62.4704 12.9009 63.0296 14.3214 63.0296C14.9 63.0296 15.4752 62.9356 16.031 62.7505L24.8749 59.8024L20.9952 52.0438ZM18.838 63.4298L18.9272 64.6852C19.0724 66.724 20.3352 68.4762 22.2236 69.2582C24.0834 70.0304 26.2694 69.6737 27.7878 68.3552L28.739 67.5306L25.5671 61.1868L18.838 63.4298ZM4.46882 43.2601L3.64367 44.2113C2.30479 45.7548 1.95868 47.8871 2.74067 49.7754C3.52239 51.6643 5.27464 52.9272 7.31395 53.0712L8.57022 53.1605L10.8126 46.4322L4.46882 43.2601ZM43.2605 67.5314L44.2111 68.3557C45.7306 69.6726 47.9148 70.0293 49.7761 69.2593C51.6645 68.4773 52.9277 66.7245 53.0725 64.6858L53.162 63.4298L46.4329 61.1871L43.2605 67.5314ZM59.8029 47.1249L52.0442 51.0047C51.5933 51.2287 51.2233 51.5999 51.0019 52.0501L47.1251 59.8027L55.9693 62.7505C56.5254 62.9362 57.1005 63.0302 57.6792 63.0302C59.0993 63.0302 60.4406 62.4706 61.4554 61.4559C62.901 60.0103 63.3975 57.9077 62.7511 55.9688L59.8029 47.1249ZM67.5315 43.2606L61.1871 46.4327L63.4303 53.1621L64.6858 53.0728C66.7256 52.9272 68.4784 51.6638 69.2601 49.777C70.0421 47.8886 69.6965 45.7564 68.3571 44.2123L67.5315 43.2606Z" fill="#594EFC"/>
</svg>
