<svg fill="none" height="56" viewBox="0 0 53 56" width="53" xmlns="http://www.w3.org/2000/svg" xmlns:xlink="http://www.w3.org/1999/xlink"><clipPath id="a"><path d="m0 0h53v56h-53z"/></clipPath><g clip-path="url(#a)"><path d="m9.0927 9.66422c1.7225 1.41338 2.385 1.28088 5.6092 1.05998l30.4308-1.81081c.6625 0 .0883-.6625-.0883-.75084l-5.035-3.66583c-.9717-.75083-2.2525-1.63417-4.7259-1.41333l-29.54747 2.20833c-1.06.08833-1.28084.6625-.83917 1.06zm1.8108 7.11088v32.0208c0 1.7225.8392 2.385 2.7825 2.2525l33.4342-1.9434c1.9433-.0883 2.1642-1.2808 2.1642-2.6941v-31.8c0-1.4133-.53-2.1642-1.7225-2.0317l-34.9359 2.0317c-1.2808.1325-1.7225.7508-1.7225 2.1642zm33.0367 1.7225c.2208.9716 0 1.9433-.9717 2.0316l-1.59.3092v23.6291c-1.4133.7509-2.6941 1.1925-3.7541 1.1925-1.7225 0-2.1642-.5299-3.445-2.1641l-10.6-16.5183v15.9883l3.3125.7508s0 1.9433-2.6942 1.9433l-7.42.4417c-.2208-.4417 0-1.5016.7508-1.7225l1.9434-.53v-21.1558l-2.6942-.2208c-.2208-.9717.3092-2.385 1.8108-2.4734l7.95-.53 11.0417 16.7392v-14.84l-2.7825-.3092c-.2208-1.1925.6625-2.0316 1.7225-2.1641zm-40.6775-16.12088 30.6517-2.252501c3.7541-.309167 4.7258-.13250023 7.1108 1.590001l9.7608 6.89c1.6342 1.1925 2.1642 1.50168 2.1642 2.78248v37.7183c0 2.385-.8392 3.7542-3.8867 3.975l-35.5983 2.1642c-2.2525.0884-3.3125-.2208-4.50501-1.7225l-7.19916-9.3633c-1.280835-1.7225-1.8108347-3.0033-1.8108347-4.505v-33.52251c0-1.94334.8391667-3.53334 3.3125047-3.75417z" fill="#2b2a35"/></g></svg>