<svg width="126" height="32" viewBox="0 0 126 32" fill="none" xmlns="http://www.w3.org/2000/svg">
<path d="M40.2891 25.1976L41.8621 21.5288C43.5619 22.8027 45.8199 23.4651 48.0526 23.4651C49.7017 23.4651 50.7419 22.8282 50.7419 21.86C50.7166 19.1593 40.8726 21.274 40.7965 14.4969C40.7711 11.0574 43.8156 8.40771 48.1287 8.40771C50.6912 8.40771 53.2537 9.04466 55.0804 10.4969L53.6089 14.2421C51.9344 13.1721 49.8539 12.4077 47.875 12.4077C46.5303 12.4077 45.6424 13.0447 45.6424 13.86C45.6677 16.5097 55.5878 15.0574 55.6893 21.5288C55.6893 25.0447 52.7209 27.5161 48.4585 27.5161C45.3379 27.5161 42.471 26.7772 40.2891 25.1976Z" fill="black"/>
<path d="M100.647 20.2039C99.8603 21.5797 98.3888 22.5224 96.689 22.5224C94.1772 22.5224 92.1475 20.4842 92.1475 17.9619C92.1475 15.4396 94.1772 13.4014 96.689 13.4014C98.3888 13.4014 99.8603 14.344 100.647 15.7198L104.985 13.2995C103.362 10.395 100.241 8.40771 96.689 8.40771C91.4371 8.40771 87.1748 12.688 87.1748 17.9619C87.1748 23.2358 91.4371 27.5161 96.689 27.5161C100.266 27.5161 103.362 25.5543 104.985 22.6243L100.647 20.2039Z" fill="black"/>
<path d="M63.3015 0.484375H57.8721V27.1596H63.3015V0.484375Z" fill="black"/>
<path d="M107.116 0.484375V27.1596H112.546V19.1596L118.99 27.1596H125.941L117.747 17.6564L125.333 8.79014H118.685L112.546 16.1532V0.484375H107.116Z" fill="black"/>
<path d="M79.4365 20.2549C78.65 21.5543 77.0263 22.5224 75.1995 22.5224C72.6878 22.5224 70.6581 20.4842 70.6581 17.9619C70.6581 15.4396 72.6878 13.4014 75.1995 13.4014C77.0263 13.4014 78.65 14.4205 79.4365 15.7453V20.2549ZM79.4365 8.78988V10.9555C78.5485 9.4523 76.3412 8.40771 74.0325 8.40771C69.2627 8.40771 65.5078 12.637 65.5078 17.9364C65.5078 23.2358 69.2627 27.5161 74.0325 27.5161C76.3412 27.5161 78.5485 26.4715 79.4365 24.9683V27.1339H84.8659V8.78988H79.4365Z" fill="black"/>
<path d="M6.72432 20.2288C6.72432 22.0887 5.22743 23.5919 3.37534 23.5919C1.52326 23.5919 0.0263672 22.0887 0.0263672 20.2288C0.0263672 18.3689 1.52326 16.8657 3.37534 16.8657H6.72432V20.2288Z" fill="#E01E5A"/>
<path d="M8.39844 20.2288C8.39844 18.3689 9.89533 16.8657 11.7474 16.8657C13.5995 16.8657 15.0964 18.3689 15.0964 20.2288V28.6365C15.0964 30.4963 13.5995 31.9995 11.7474 31.9995C9.89533 31.9995 8.39844 30.4963 8.39844 28.6365V20.2288Z" fill="#E01E5A"/>
<path d="M11.7474 6.72614C9.89533 6.72614 8.39844 5.22295 8.39844 3.36307C8.39844 1.50319 9.89533 0 11.7474 0C13.5995 0 15.0964 1.50319 15.0964 3.36307V6.72614H11.7474Z" fill="#36C5F0"/>
<path d="M11.7468 8.43311C13.5989 8.43311 15.0958 9.9363 15.0958 11.7962C15.0958 13.6561 13.5989 15.1592 11.7468 15.1592H3.34898C1.49689 15.1592 0 13.6561 0 11.7962C0 9.9363 1.49689 8.43311 3.34898 8.43311H11.7468Z" fill="#36C5F0"/>
<path d="M25.168 11.7962C25.168 9.9363 26.6649 8.43311 28.517 8.43311C30.369 8.43311 31.8659 9.9363 31.8659 11.7962C31.8659 13.6561 30.369 15.1592 28.517 15.1592H25.168V11.7962Z" fill="#2EB67D"/>
<path d="M23.4939 11.7962C23.4939 13.6561 21.997 15.1593 20.1449 15.1593C18.2928 15.1593 16.7959 13.6561 16.7959 11.7962V3.36307C16.7959 1.50319 18.2928 0 20.1449 0C21.997 0 23.4939 1.50319 23.4939 3.36307V11.7962Z" fill="#2EB67D"/>
<path d="M20.1439 25.2739C21.996 25.2739 23.4929 26.7771 23.4929 28.637C23.4929 30.4969 21.996 32.0001 20.1439 32.0001C18.2918 32.0001 16.7949 30.4969 16.7949 28.637V25.2739H20.1439Z" fill="#ECB22E"/>
<path d="M20.1439 23.5923C18.2918 23.5923 16.7949 22.0892 16.7949 20.2293C16.7949 18.3694 18.2918 16.8662 20.1439 16.8662H28.5417C30.3938 16.8662 31.8907 18.3694 31.8907 20.2293C31.8907 22.0892 30.3938 23.5923 28.5417 23.5923H20.1439Z" fill="#ECB22E"/>
</svg>
