<svg fill="none" height="16" viewBox="0 0 209 16" width="209" xmlns="http://www.w3.org/2000/svg"><g fill="#000"><path d="m6.434 14.68c-2.03933 0-3.85067-.7093-5.434-2.128l.931-1.102c.70933.646 1.41867 1.121 2.128 1.425.722.304 1.53267.456 2.432.456.88667 0 1.60233-.209 2.147-.627.54467-.4307.817-.988.817-1.672 0-.646-.24067-1.159-.722-1.539s-1.39333-.70933-2.736-.988c-1.58333-.342-2.72333-.80433-3.42-1.387s-1.045-1.41233-1.045-2.489c0-1.05133.41167-1.919 1.235-2.603s1.86833-1.026 3.135-1.026c1.76067 0 3.31867.54467 4.674 1.634l-.874 1.159c-1.178-.96267-2.45733-1.444-3.838-1.444-.84867 0-1.53267.209-2.052.627-.51933.40533-.779.92467-.779 1.558 0 .65867.247 1.178.741 1.558.50667.38 1.463.722 2.869 1.026 1.50733.32933 2.603.79167 3.287 1.387.6967.58267 1.045 1.387 1.045 2.413 0 1.1273-.4243 2.0393-1.273 2.736-.84867.684-1.938 1.026-3.268 1.026z"/><path d="m26.9473 14.699c-1.6846 0-3.0273-.5003-4.028-1.501-1.0006-1.0133-1.501-2.4383-1.501-4.275v-7.733h1.501v7.638c0 1.4313.3547 2.5397 1.064 3.325.722.7727 1.7227 1.159 3.002 1.159 1.254 0 2.2357-.3737 2.945-1.121.7094-.7473 1.064-1.8367 1.064-3.268v-7.733h1.501v7.619c0 1.9-.5003 3.3567-1.501 4.37-1.0006 1.0133-2.3496 1.52-4.047 1.52z"/><path d="m43.6443 14.49v-13.3h4.978c1.52 0 2.7297.38 3.629 1.14.8994.76 1.349 1.79867 1.349 3.116 0 1.38067-.5003 2.451-1.501 3.211-.988.76-2.2293 1.14-3.724 1.14h-3.23v4.693zm1.501-6.061h3.287c1.102 0 1.9823-.266 2.641-.798.6713-.54467 1.007-1.26667 1.007-2.166 0-.92467-.323-1.634-.969-2.128-.6333-.50667-1.501-.76-2.603-.76h-3.363z"/><path d="m63.9357 14.49v-13.3h9.614v1.368h-8.113v4.541h7.258v1.368h-7.258v4.655h8.208v1.368z"/><path d="m84.2642 14.49v-13.3h5.719c1.634 0 2.8944.44333 3.781 1.33.684.684 1.026 1.57067 1.026 2.66 0 1.064-.3293 1.92533-.988 2.584-.6586.65867-1.5326 1.08933-2.622 1.292l4.085 5.434h-1.843l-3.857-5.168h-3.8v5.168zm1.501-6.517h4.085c1.0134 0 1.8367-.247 2.47-.741.6334-.494.95-1.17167.95-2.033 0-.82333-.304-1.463-.912-1.919-.5953-.46867-1.425-.703-2.489-.703h-4.104z"/><path d="m105.595 14.49v-13.3h1.501v5.909h7.676v-5.909h1.501v13.3h-1.501v-5.985h-7.676v5.985z"/><path d="m132.95 14.699c-1.684 0-3.027-.5003-4.028-1.501-1-1.0133-1.501-2.4383-1.501-4.275v-7.733h1.501v7.638c0 1.4313.355 2.5397 1.064 3.325.722.7727 1.723 1.159 3.002 1.159 1.254 0 2.236-.3737 2.945-1.121.71-.7473 1.064-1.8367 1.064-3.268v-7.733h1.501v7.619c0 1.9-.5 3.3567-1.501 4.37-1 1.0133-2.349 1.52-4.047 1.52z"/><path d="m149.647 14.49v-13.3h1.52l4.845 7.258 4.845-7.258h1.52v13.3h-1.501v-10.773l-4.845 7.125h-.076l-4.845-7.106v10.754z"/><path d="m172.602 14.49 6.061-13.395h1.406l6.061 13.395h-1.615l-1.558-3.515h-7.239l-1.577 3.515zm3.705-4.864h6.061l-3.021-6.783z"/><path d="m196.353 14.49v-13.3h1.406l8.379 10.659v-10.659h1.463v13.3h-1.197l-8.588-10.906v10.906z"/></g></svg>