<svg width="189" height="25" viewBox="0 0 189 25" fill="none" xmlns="http://www.w3.org/2000/svg">
<path d="M13.7936 18.4842L0.829102 11.0392V5.90479L13.7936 13.3497V18.4842Z" fill="#B51918"/>
<path d="M14.6924 12.5794L27.6568 5.13444V0L14.6924 7.44494V12.5794Z" fill="#B51918"/>
<path d="M14.6924 24.3885L27.6568 16.9435V11.8091L14.6924 19.254V24.3885Z" fill="#B51918"/>
<path d="M35.4209 24.1236V3.54809H31.4795V0.341525H42.7693V3.54809H38.8279V24.1236H35.4209Z" fill="#2B2A35"/>
<path d="M44.1064 24.1236V0.341525H47.5134V10.5291H51.722V0.341525H55.129V24.1236H51.722V13.5352H47.5134V24.1236H44.1064Z" fill="#2B2A35"/>
<path d="M61.5682 3.54809V10.9633H63.5055C64.1068 10.9633 64.5855 10.8853 64.9418 10.7295C65.2981 10.5513 65.5764 10.3064 65.7768 9.99464C65.955 9.68289 66.0775 9.30433 66.1443 8.85898C66.2111 8.39135 66.2445 7.85692 66.2445 7.25569C66.2445 6.65446 66.2111 6.13116 66.1443 5.68581C66.0775 5.21818 65.9439 4.81736 65.7434 4.48335C65.3204 3.85984 64.5187 3.54809 63.3385 3.54809H61.5682ZM58.1612 24.1236V0.341525H63.6391C67.6473 0.341525 69.6514 2.66851 69.6514 7.32249C69.6514 8.72537 69.4288 9.9167 68.9834 10.8965C68.5603 11.8763 67.8032 12.6668 66.7121 13.268L70.3863 24.1236H66.7789L63.6057 13.9694H61.5682V24.1236H58.1612Z" fill="#2B2A35"/>
<path d="M72.3163 24.1236V0.341525H75.7233V24.1236H72.3163Z" fill="#2B2A35"/>
<path d="M90.4234 0.341525L85.5468 24.1236H82.5406L77.6974 0.341525H81.3047L84.0103 16.9422H84.0771L86.816 0.341525H90.4234Z" fill="#2B2A35"/>
<path d="M92.3015 24.1236V0.341525H102.456V3.54809H95.7085V10.5291H101.587V13.7356H95.7085V20.7166H102.456V24.1236H92.3015Z" fill="#2B2A35"/>
<path d="M120.181 17.343V18.8127C120.181 19.5475 120.036 20.249 119.747 20.917C119.479 21.5628 119.101 22.1417 118.611 22.6539C118.121 23.1661 117.542 23.578 116.874 23.8898C116.228 24.1793 115.527 24.324 114.77 24.324C114.124 24.324 113.467 24.2349 112.799 24.0568C112.131 23.8786 111.53 23.5669 110.995 23.1215C110.461 22.6762 110.015 22.1083 109.659 21.418C109.325 20.7055 109.158 19.8036 109.158 18.7125V5.619C109.158 4.83963 109.292 4.11592 109.559 3.44789C109.826 2.77985 110.205 2.20089 110.695 1.711C111.185 1.2211 111.763 0.842551 112.432 0.575337C113.122 0.285854 113.879 0.141113 114.703 0.141113C116.306 0.141113 117.609 0.664408 118.611 1.711C119.101 2.22316 119.479 2.83552 119.747 3.54809C120.036 4.2384 120.181 4.9955 120.181 5.81941V7.15549H116.774V6.01982C116.774 5.35179 116.584 4.77283 116.206 4.28293C115.827 3.79304 115.315 3.54809 114.669 3.54809C113.823 3.54809 113.255 3.81531 112.966 4.34974C112.699 4.8619 112.565 5.5188 112.565 6.32044V18.4787C112.565 19.169 112.71 19.748 112.999 20.2156C113.311 20.6832 113.857 20.917 114.636 20.917C114.859 20.917 115.093 20.8836 115.337 20.8168C115.605 20.7277 115.85 20.5941 116.072 20.416C116.273 20.2378 116.44 19.9929 116.573 19.6811C116.707 19.3694 116.774 18.9797 116.774 18.5121V17.343H120.181Z" fill="#2B2A35"/>
<path d="M129.674 15.8065L128.004 7.18889H127.938L126.267 15.8065H129.674ZM121.257 24.1236L126.568 0.341525H129.407L134.718 24.1236H131.311L130.309 19.0131H125.666L124.664 24.1236H121.257Z" fill="#2B2A35"/>
<path d="M136.229 24.1236V0.341525H141.339C142.274 0.341525 143.098 0.463998 143.811 0.708944C144.523 0.95389 145.169 1.38811 145.748 2.01161C146.327 2.63511 146.728 3.36995 146.951 4.21613C147.173 5.04004 147.285 6.16457 147.285 7.58971C147.285 8.65856 147.218 9.56041 147.084 10.2953C146.973 11.0301 146.717 11.7204 146.316 12.3662C145.848 13.1455 145.225 13.7579 144.446 14.2033C143.666 14.6263 142.642 14.8379 141.373 14.8379H139.636V24.1236H136.229ZM139.636 3.54809V11.6313H141.272C141.963 11.6313 142.497 11.5311 142.876 11.3307C143.254 11.1303 143.533 10.8519 143.711 10.4957C143.889 10.1616 143.989 9.74969 144.011 9.2598C144.056 8.7699 144.078 8.22434 144.078 7.62311C144.078 7.06641 144.067 6.54312 144.045 6.05323C144.022 5.54107 143.922 5.09571 143.744 4.71716C143.566 4.3386 143.299 4.04912 142.942 3.84871C142.586 3.6483 142.074 3.54809 141.406 3.54809H139.636Z" fill="#2B2A35"/>
<path d="M149.764 24.1236V0.341525H153.171V24.1236H149.764Z" fill="#2B2A35"/>
<path d="M158.552 24.1236V3.54809H154.611V0.341525H165.9V3.54809H161.959V24.1236H158.552Z" fill="#2B2A35"/>
<path d="M172.292 15.8065L170.622 7.18889H170.555L168.885 15.8065H172.292ZM163.874 24.1236L169.185 0.341525H172.024L177.335 24.1236H173.928L172.926 19.0131H168.283L167.281 24.1236H163.874Z" fill="#2B2A35"/>
<path d="M178.846 24.1236V0.341525H182.253V20.7166H189V24.1236H178.846Z" fill="#2B2A35"/>
</svg>
