<svg width="120" height="27" viewBox="0 0 120 27" fill="none" xmlns="http://www.w3.org/2000/svg">
<path d="M48.6397 3.94875C46.0104 1.31625 42.5722 0 39.1003 0C35.6621 0 32.1902 1.31625 29.561 3.94875C24.3026 9.21375 24.3026 17.7525 29.561 23.0513C34.8194 28.3163 43.3475 28.3163 48.6397 23.0513C53.8981 17.7863 53.8981 9.21375 48.6397 3.94875ZM44.8307 19.2375C41.6621 22.41 36.5385 22.41 33.4037 19.2375C30.2352 16.065 30.2352 10.935 33.4037 7.79625C36.5722 4.62375 41.6958 4.62375 44.8307 7.79625C47.9655 10.935 47.9655 16.065 44.8307 19.2375Z" fill="#2D8CFF"/>
<path d="M76.9551 3.94875C74.3259 1.31625 70.8877 0 67.4158 0C63.9776 0 60.5057 1.31625 57.8764 3.94875C52.618 9.21375 52.618 17.7525 57.8764 23.0513C63.1349 28.3163 71.663 28.3163 76.9551 23.0513C82.2135 17.7863 82.2135 9.21375 76.9551 3.94875ZM73.1461 19.2375C69.9776 22.41 64.854 22.41 61.7191 19.2375C58.5506 16.065 58.5506 10.935 61.7191 7.79625C64.8877 4.62375 70.0113 4.62375 73.1461 7.79625C76.2809 10.935 76.2809 16.065 73.1461 19.2375Z" fill="#2D8CFF"/>
<path fill-rule="evenodd" clip-rule="evenodd" d="M5.39326 26.9325L6.74157 27H26.9663L26.8989 25.65C26.7303 23.4225 25.1461 21.8025 22.9213 21.6675L21.573 21.6H9.4382L25.618 5.4L25.5506 4.05C25.4494 1.8225 23.7978 0.2025 21.573 0.0675L20.2247 0H0L0.0674157 1.35C0.235955 3.54375 1.85393 5.1975 4.04494 5.3325L5.39326 5.4H17.5281L1.34831 21.6L1.41573 22.95C1.55056 25.1775 3.16854 26.7975 5.39326 26.9325Z" fill="#2D8CFF"/>
<path fill-rule="evenodd" clip-rule="evenodd" d="M97.6862 8.1C98.1582 8.91 98.293 9.7875 98.3604 10.8L98.4278 12.15V21.6L98.4952 22.95C98.6301 25.1438 100.248 26.7975 102.473 26.9325L103.821 27V12.15L103.888 10.8C103.956 9.7875 104.091 8.87625 104.563 8.06625C105.506 6.44625 107.226 5.4 109.214 5.4C111.203 5.4 112.956 6.48 113.9 8.1C114.372 8.91 114.506 9.82125 114.54 10.8L114.608 12.15V21.6L114.675 22.95C114.81 25.1775 116.428 26.7975 118.653 26.9325L120.001 27V12.15V10.8C120.001 4.82625 115.181 0 109.214 0C105.978 0 103.113 1.4175 101.124 3.645C99.1357 1.4175 96.2705 0 93.0346 0C90.8098 0 88.72 0.675 87.0009 1.85625C85.9559 0.675 83.5964 0 82.248 0V27L83.5964 26.9325C85.8548 26.7975 87.4728 25.1775 87.5739 22.95L87.6413 21.6V12.15L87.7087 10.8C87.7761 9.7875 87.911 8.87625 88.3829 8.1C89.3267 6.48 91.0458 5.4 93.0346 5.4C95.0233 5.4 96.7761 6.48 97.6862 8.1Z" fill="#2D8CFF"/>
</svg>
