<?xml version="1.0" standalone="no"?>
<!DOCTYPE svg PUBLIC "-//W3C//DTD SVG 20010904//EN"
 "http://www.w3.org/TR/2001/REC-SVG-20010904/DTD/svg10.dtd">
<svg version="1.0" xmlns="http://www.w3.org/2000/svg"
 width="77.000000pt" height="77.000000pt" viewBox="0 0 77.000000 77.000000"
 preserveAspectRatio="xMidYMid meet">
<metadata>
Created by potrace 1.14, written by Peter Selinger 2001-2017
</metadata>
<g transform="translate(0.000000,77.000000) scale(0.100000,-0.100000)"
fill="#000000" stroke="none">
<path d="M355 762 c-3 -3 -5 -88 -5 -189 l0 -183 39 0 39 0 -1 187 -2 186 -33
2 c-18 1 -34 -1 -37 -3z"/>
<path d="M190 708 c-252 -151 -237 -528 25 -661 190 -96 426 -15 521 179 26
53 29 69 29 159 0 88 -3 106 -27 155 -37 76 -73 117 -142 162 -78 50 -95 50
-93 -2 1 -22 5 -40 9 -40 22 0 92 -56 122 -98 115 -157 58 -366 -123 -453 -71
-34 -178 -33 -253 4 -209 102 -234 381 -47 516 22 17 45 31 51 33 6 2 12 21
13 41 2 47 -13 48 -85 5z"/>
</g>
</svg>
