<svg width="43" height="32" viewBox="0 0 43 32" fill="none" xmlns="http://www.w3.org/2000/svg">
<g clip-path="url(#clip0_663_68)">
<path fill-rule="evenodd" clip-rule="evenodd" d="M16.2061 31.8489C9.45011 31.8489 2.79511 27.4999 1.50011 20.6299C0.430109 15.9989 0.552109 11.7699 2.68111 8.15391C4.81211 4.53791 8.22111 1.96991 12.2811 0.920914C16.3421 0.126914 20.5681 0.467914 24.1811 2.59891C27.5661 4.59591 30.3301 7.71891 31.1931 11.4489H32.7441C38.3641 11.4489 42.9361 16.2399 42.9361 21.6489C42.9361 27.2729 38.3641 31.8489 32.7441 31.8489H16.2171C16.2141 31.8489 16.2091 31.8489 16.2061 31.8489ZM16.2301 2.43791C15.8201 2.43791 13.9271 2.58291 12.7861 2.87891C9.24811 3.79291 6.27811 6.31991 4.42211 9.18191C2.56611 12.3319 2.47011 16.1699 2.96111 19.5579C4.52111 25.6049 9.96711 29.8259 16.2071 29.8259C16.2101 29.8259 16.2131 29.8259 16.2171 29.8259H32.7441C37.2491 29.8259 40.9151 26.1579 40.9151 21.6489C40.9151 17.1389 37.2491 13.4699 32.7441 13.4699H30.4301C29.9691 13.4699 29.5671 13.1579 29.4521 12.7119C28.5381 9.17191 26.3021 6.19791 23.1541 4.34091C21.2101 3.82991 18.6431 2.43791 16.2301 2.43791Z" fill="#121820"/>
</g>
<defs>
<clipPath id="clip0_663_68">
<rect width="43" height="32" fill="white"/>
</clipPath>
</defs>
</svg>
