<svg width="35" height="35" viewBox="0 0 35 35" fill="none" xmlns="http://www.w3.org/2000/svg">
<g clip-path="url(#clip0_732_12)">
<path fill-rule="evenodd" clip-rule="evenodd" d="M17.4472 34.9978C17.4442 34.9978 17.4402 34.9978 17.4362 34.9978C12.7752 34.9948 8.39322 33.1718 5.98022 29.8658C1.80422 26.5578 0.800221 22.1628 0.500221 17.4878C0.200221 12.8128 1.81422 8.41978 5.11322 5.11578C8.40922 1.81578 12.7882 0.0997814 17.4472 0.0997814C17.4502 0.0997814 17.4522 0.0997814 17.4562 0.0997814C19.9162 -0.000218559 22.3032 0.508782 24.5492 1.51278C25.5202 1.73678 25.2792 2.32878 25.5402 2.83378C24.8302 3.33778 24.2432 3.56278 23.7372 3.33978C21.7482 2.44978 19.6342 1.99978 17.4552 1.99778C17.4522 1.99778 17.4492 1.99778 17.4472 1.99778C13.3202 1.99778 9.44122 3.60778 6.52222 6.53078C3.60122 9.45778 1.99122 13.3488 1.98922 17.4888C1.98622 21.6288 3.59222 25.5228 6.51022 28.4518C9.42722 31.3808 13.3082 32.9948 17.4382 32.9968C17.4402 32.9968 17.4442 32.9968 17.4472 32.9968C25.9662 32.9968 32.8992 26.5098 32.9052 17.5078V15.9898C32.9052 15.4378 33.3512 14.9888 33.9022 14.9888C34.4532 14.9888 34.8992 15.4378 34.8992 15.9898V17.5078C34.8932 27.1538 27.6502 34.9978 17.4472 34.9978ZM18.1522 21.5308C17.9652 21.7178 17.7122 21.8238 17.4472 21.8238C17.1832 21.8238 16.9292 21.7178 16.7422 21.5318L11.8052 16.5808C11.4152 16.1908 11.4152 15.5578 11.8052 15.1668C12.1942 14.7758 12.8252 14.7758 13.2152 15.1668L17.4472 19.4098L33.1972 3.60078C33.5862 3.20978 34.2172 3.21078 34.6072 3.59978C34.9972 3.98978 34.9972 4.62278 34.6072 5.13978L18.1522 21.5308Z" fill="#121820"/>
</g>
<defs>
<clipPath id="clip0_732_12">
<rect width="35" height="35" fill="white"/>
</clipPath>
</defs>
</svg>
