<svg width="41" height="41" viewBox="0 0 41 41" fill="none" xmlns="http://www.w3.org/2000/svg">
<g clip-path="url(#clip0_745_2)">
<path fill-rule="evenodd" clip-rule="evenodd" d="M39.999 16.1801H35.681V23.4401H39.999C40.552 23.4401 40.999 23.4921 40.999 24.4401C40.999 24.5961 40.552 25.4401 39.999 25.4401H35.681V31.1351C35.681 33.6421 33.642 35.6801 31.135 35.6801H26.818V39.9981C26.818 40.5511 26.371 40.9981 25.818 40.9981C25.265 40.9981 24.818 40.5511 24.818 39.9981V35.6801H16.181V39.9981C16.181 40.5511 15.734 40.9981 15.181 40.9981C14.628 40.9981 14.181 40.5511 14.181 39.9981V35.6801H9.863C7.357 35.6801 5.318 33.6421 5.318 31.1351V25.4401H0.999C0.447 25.4401 0 24.5961 0 24.4401C0 23.4921 0.447 23.4401 0.999 23.4401H5.318V16.1801H0.999C0.447 16.1801 0 15.7331 0 15.1801C0 14.6291 0.447 14.1811 0.999 14.1811H5.318V9.8621C5.318 7.3551 7.357 5.3161 9.863 5.3161H14.181V0.998098C14.181 0.445098 14.628 0.100098 15.181 0.100098C15.734 0.100098 16.181 0.445098 16.181 0.998098V5.3161H24.818V0.998098C24.818 0.445098 25.265 0.100098 25.818 0.100098C26.371 0.100098 26.818 0.445098 26.818 0.998098V5.3161H31.135C33.642 5.3161 35.681 7.3551 35.681 9.8621V14.1811H39.999C40.552 14.1811 40.999 14.6291 40.999 15.1801C40.999 15.7331 40.552 16.1801 39.999 16.1801ZM33.681 9.8621C33.681 8.4581 32.539 7.3161 31.135 7.3161H9.863C8.459 7.3161 7.318 8.4581 7.318 9.8621V31.1351C7.318 32.5381 8.459 33.6801 9.863 33.6801H31.135C32.539 33.6801 33.681 32.5381 33.681 31.1351V9.8621ZM25.818 26.8171H15.181C14.628 26.8171 14.181 26.3691 14.181 25.8171V15.1801C14.181 14.6291 14.628 14.1811 15.181 14.1811H25.818C26.371 14.1811 26.818 14.6291 26.818 15.1801V25.8171C26.818 26.3691 26.371 26.8171 25.818 26.8171ZM24.818 16.1801H16.181V24.8171H24.818V16.1801Z" fill="#121820"/>
</g>
<defs>
<clipPath id="clip0_745_2">
<rect width="41" height="41" fill="white"/>
</clipPath>
</defs>
</svg>
