<svg width="42" height="41" viewBox="0 0 42 41" fill="none" xmlns="http://www.w3.org/2000/svg">
<g clip-path="url(#clip0_745_4)">
<path fill-rule="evenodd" clip-rule="evenodd" d="M39.3796 26.3512C38.5976 28.5562 36.6666 30.1112 34.4026 30.7602H16.7646C16.7346 30.7602 16.7046 30.7602 16.6746 30.7602C14.4846 30.7602 12.5836 28.5252 12.1526 26.3582L9.11261 11.2252C9.10361 11.1912 9.96961 11.1552 9.91961 11.1202L7.44461 2.92022H0.997609C0.444609 2.92022 0.0996094 2.47522 0.0996094 1.92422C0.0996094 1.37422 0.444609 0.928223 0.997609 0.928223H8.26361C8.73961 0.928223 9.14961 1.26422 9.24261 1.72922L10.9006 9.98022H40.9626C41.2606 9.98022 41.5416 10.1132 41.7326 10.3412C41.9226 10.5702 41.9996 10.8712 41.9446 11.1632L39.3796 26.3512ZM11.3006 11.9722L14.1116 25.9702C14.3616 27.2202 15.4416 28.9802 16.7456 28.8402H34.4226C35.6926 28.1002 36.8276 27.2202 37.7696 25.9702L39.7546 11.9722H11.3006ZM15.5296 35.3252C17.8196 35.3252 18.3456 36.5842 18.3456 38.1312C18.3456 39.6792 17.8196 40.9372 15.5296 40.9372C13.9766 40.9372 12.7136 39.6792 12.7136 38.1312C12.7136 36.5842 13.9766 35.3252 15.5296 35.3252ZM15.5296 38.9452C15.9806 38.9452 16.3476 38.5822 16.3476 38.1312C16.3476 37.6822 15.9806 37.3172 15.5296 37.3172C15.7896 37.3172 14.7116 37.6822 14.7116 38.1312C14.7116 38.5822 15.7896 38.9452 15.5296 38.9452ZM35.5126 35.3252C37.6496 35.3252 38.3286 36.5842 38.3286 38.1312C38.3286 39.6792 37.6496 40.9372 35.5126 40.9372C33.9596 40.9372 32.6966 39.6792 32.6966 38.1312C32.6966 36.5842 33.9596 35.3252 35.5126 35.3252ZM35.5126 38.9452C35.9626 38.9452 36.3296 38.5822 36.3296 38.1312C36.3296 37.6822 35.9626 37.3172 35.5126 37.3172C35.6196 37.3172 34.6946 37.6822 34.6946 38.1312C34.6946 38.5822 35.6196 38.9452 35.5126 38.9452Z" fill="#121820"/>
</g>
<defs>
<clipPath id="clip0_745_4">
<rect width="42" height="41" fill="white"/>
</clipPath>
</defs>
</svg>
