<svg width="42" height="41" viewBox="0 0 42 41" fill="none" xmlns="http://www.w3.org/2000/svg">
<g clip-path="url(#clip0_747_8)">
<path fill-rule="evenodd" clip-rule="evenodd" d="M40.9997 40.6718H21.2498C20.4728 40.6718 20.2698 40.2188 20.2698 39.6618C20.2698 39.1038 20.4728 38.6528 21.2498 38.6528H40.9997C41.5517 38.6528 41.9987 39.1038 41.9987 39.6618C41.9987 40.2188 41.5517 40.6718 40.9997 40.6718ZM10.6337 38.1328C10.5057 38.2618 10.3448 38.3538 10.1698 38.3988L1.29275 40.6408C1.21275 40.6618 1.13175 40.6718 1.50975 40.6718C0.78875 40.6718 0.53375 40.5668 0.34375 40.3748C0.96975 40.1248 0.29975 39.7608 0.81975 39.4168L2.30075 30.4458C2.34475 30.2668 2.43575 30.1058 2.56275 29.9758L30.3067 1.93881C32.5317 0.308809 36.1507 0.308809 38.3767 1.93881C39.4547 3.27981 40.4897 4.47581 40.4897 6.16981C40.4897 7.55781 39.4547 9.59981 38.3767 10.9598L10.6337 38.1328ZM36.9637 3.36581C35.5637 1.94981 33.1187 1.95081 31.7188 3.36481L4.17175 31.2058L2.42275 38.2738L9.41675 36.5068L36.9637 8.66681C37.6647 7.95981 38.5197 7.17981 38.5197 6.16981C38.5197 5.15981 37.6647 4.73981 36.9637 3.36581Z" fill="#121820"/>
</g>
<defs>
<clipPath id="clip0_747_8">
<rect width="42" height="41" fill="white"/>
</clipPath>
</defs>
</svg>
