<svg width="42" height="52" viewBox="0 0 42 52" fill="none" xmlns="http://www.w3.org/2000/svg">
<g clip-path="url(#clip0_747_12)">
<path fill-rule="evenodd" clip-rule="evenodd" d="M21 51.998C20.846 51.998 20.693 51.963 20.552 51.893C19.713 51.473 0 41.443 0 26.8V8.51598C0 8.97998 0.258 7.72598 0.648 7.57898L20.648 0.81998C20.875 0.19998 21.124 0.19998 21.35 0.81998L41.351 7.57898C41.741 7.72598 41.999 8.97998 41.999 8.51598V26.8C41.999 41.443 22.286 51.473 21.447 51.893C21.306 51.963 21.153 51.998 21 51.998ZM1.999 9.20798V26.8C1.999 39 18.87 48.294 20.999 49.868C23.909 48.292 39.999 38.986 39.999 26.8V9.20798L21 2.85998L1.999 9.20798Z" fill="white"/>
</g>
<defs>
<clipPath id="clip0_747_12">
<rect width="42" height="52" fill="white"/>
</clipPath>
</defs>
</svg>
