<svg width="42" height="32" viewBox="0 0 42 32" fill="none" xmlns="http://www.w3.org/2000/svg">
<g clip-path="url(#clip0_747_10)">
<path fill-rule="evenodd" clip-rule="evenodd" d="M37.363 31.9742H4.636C2.79 31.9742 0 29.9002 0 27.3512V5.59224C0 3.42024 2.79 0.969238 4.636 0.969238H37.363C39.919 0.969238 41.999 3.42024 41.999 5.59224V27.3512C41.999 29.9002 39.919 31.9742 37.363 31.9742ZM4.636 29.9792H37.363C38.817 29.9792 39.999 28.8002 39.999 27.3512V13.8432H1.999V27.3512C1.999 28.8002 3.182 29.9792 4.636 29.9792ZM37.363 2.96324H4.636C3.182 2.96324 1.999 4.14224 1.999 5.59224V11.8482H39.999V5.59224C39.999 4.14224 38.817 2.96324 37.363 2.96324Z" fill="#121820"/>
</g>
<defs>
<clipPath id="clip0_747_10">
<rect width="42" height="32" fill="white"/>
</clipPath>
</defs>
</svg>
