<svg width="37" height="37" viewBox="0 0 37 37" fill="none" xmlns="http://www.w3.org/2000/svg">
<g clip-path="url(#clip0_760_14)">
<path fill-rule="evenodd" clip-rule="evenodd" d="M32.111 36.9982H4.889C2.193 36.9982 0 34.8042 0 32.1092V4.8872C0 2.1912 2.193 0.200195 4.889 0.200195H32.111C34.807 0.200195 36.999 2.1912 36.999 4.8872V32.1092C36.999 34.8042 34.807 36.9982 32.111 36.9982ZM1.999 32.1092C1.999 33.7022 3.295 34.9982 4.889 34.9982H11.666V13.6652H1.999V32.1092ZM34.999 4.8872C34.999 3.2942 33.704 1.9982 32.111 1.9982H4.889C3.295 1.9982 1.999 3.2942 1.999 4.8872V11.6652H34.999V4.8872ZM34.999 13.6652H13.666V34.9982H32.111C33.704 34.9982 34.999 33.7022 34.999 32.1092V13.6652Z" fill="#121820"/>
</g>
<defs>
<clipPath id="clip0_760_14">
<rect width="37" height="37" fill="white"/>
</clipPath>
</defs>
</svg>
