<svg width="32" height="37" viewBox="0 0 32 37" fill="none" xmlns="http://www.w3.org/2000/svg">
<g clip-path="url(#clip0_760_16)">
<path fill-rule="evenodd" clip-rule="evenodd" d="M31 36.9318C30.447 36.9318 29.999 36.4818 29.999 35.9248V32.1508C29.999 28.5418 27.83 25.6078 23.499 25.6078H8.499C4.915 25.6078 1.999 28.5418 1.999 32.1508V35.9248C1.999 36.4818 1.552 36.9318 0.999 36.9318C0.447 36.9318 0 36.4818 0 35.9248V32.1508C0 27.4328 3.812 23.5938 8.499 23.5938H23.499C28.186 23.5938 31.999 27.4328 31.999 32.1508V35.9248C31.999 36.4818 31.552 36.9318 31 36.9318ZM16 18.5798C11.312 18.5798 7.499 14.2188 7.499 9.50082C7.499 4.78382 11.312 0.944824 16 0.944824C20.686 0.944824 24.499 4.78382 24.499 9.50082C24.499 14.2188 20.686 18.5798 16 18.5798ZM16 2.95882C12.415 2.95882 9.499 5.89382 9.499 9.50082C9.499 13.1098 12.415 16.4398 16 16.4398C19.583 16.4398 22.499 13.1098 22.499 9.50082C22.499 5.89382 19.583 2.95882 16 2.95882Z" fill="#121820"/>
</g>
<defs>
<clipPath id="clip0_760_16">
<rect width="32" height="37" fill="white"/>
</clipPath>
</defs>
</svg>
