<svg width="42" height="40" viewBox="0 0 42 40" fill="none" xmlns="http://www.w3.org/2000/svg">
<g clip-path="url(#clip0_766_2)">
<path fill-rule="evenodd" clip-rule="evenodd" d="M12.99 39.9678C8.93096 39.9678 5.94796 38.7458 3.69096 36.5208L3.58096 36.4128C-1.17004 31.6568 0.884965 24.7298 3.86396 19.4918C8.29096 15.2188 15.102 15.2998 19.772 18.8408L27.316 11.3078L27.319 11.3058L38.297 0.342773C38.686 0.439773 39.315 0.439773 39.704 0.342773C40.93 0.730773 40.93 1.35977 39.704 1.74677L36.414 5.32977L41.7 10.3108C41.887 10.4968 41.992 10.7498 41.992 11.1398C41.992 11.2768 41.887 11.5288 41.7 11.7158L34.712 18.6928C34.324 19.8098 33.694 19.8098 33.305 18.6928L28.19 13.4148L21.196 20.2278C23.42 22.3718 24.57 25.6998 24.77 27.9288C24.98 31.1238 22.872 34.1338 20.626 36.4078C18.379 38.6818 15.38 39.9458 12.181 39.9668C12.154 39.9668 12.127 39.9678 12.99 39.9678ZM12.183 18.1068C9.68696 18.1068 7.18996 19.4398 5.24496 20.9208C1.28496 24.7398 1.17496 31.6498 4.99996 35.2098L5.87996 35.1068C6.98696 36.9788 9.52396 37.9838 12.168 37.9808C14.835 37.9628 17.336 36.9088 19.209 35.1298C21.82 33.1158 22.104 30.6058 22.87 27.9428C22.69 25.3028 21.32 22.8268 19.165 20.9608C19.15 20.9478 19.135 20.9338 19.121 20.9208C17.176 19.4398 14.679 18.1068 12.183 18.1068ZM29.426 12.0998L34.9 16.5868L39.59 11.1398L35.8 6.43777L29.426 12.0998Z" fill="#121820"/>
</g>
<defs>
<clipPath id="clip0_766_2">
<rect width="42" height="40" fill="white"/>
</clipPath>
</defs>
</svg>
