<svg width="38" height="42" viewBox="0 0 38 42" fill="none" xmlns="http://www.w3.org/2000/svg">
<g clip-path="url(#clip0_766_4)">
<path fill-rule="evenodd" clip-rule="evenodd" d="M19 41.998C9.558 41.998 0 39.594 0 34.999V6.999C0 2.452 9.788 0 19 0C28.21 0 37.999 2.452 37.999 6.999V34.999C37.999 39.594 28.441 41.998 19 41.998ZM19 39.998C29.532 39.998 35.999 37.86 35.999 34.999V24.292C32.713 26.732 25.836 27.999 19 27.999C12.163 27.999 5.286 26.732 1.999 24.292V34.999C1.999 37.86 8.467 39.998 19 39.998ZM1.999 20.998C1.999 23.87 8.467 25.998 19 25.998C29.532 25.998 35.999 23.87 35.999 20.998V10.243C32.674 12.697 25.694 13.999 19 13.999C12.305 13.999 5.325 12.697 1.999 10.243V20.998ZM19 1.998C8.467 1.998 1.999 4.91 1.999 6.999C1.999 9.86 8.467 11.999 19 11.999C29.532 11.999 35.999 9.86 35.999 6.999C35.999 4.91 29.532 1.998 19 1.998Z" fill="#121820"/>
</g>
<defs>
<clipPath id="clip0_766_4">
<rect width="38" height="42" fill="white"/>
</clipPath>
</defs>
</svg>
