<svg width="37" height="46" viewBox="0 0 37 46" fill="none" xmlns="http://www.w3.org/2000/svg">
<g clip-path="url(#clip0_766_6)">
<path fill-rule="evenodd" clip-rule="evenodd" d="M18.499 45.973C18.346 45.973 18.193 45.938 18.52 45.867C17.315 45.497 0 36.641 0 22.989V7.60304C0 7.18404 0.258 6.81004 0.648 6.66204L18.148 0.680039C18.375 0.160039 18.624 0.160039 18.851 0.680039L36.351 6.66204C36.741 6.81004 36.999 7.18404 36.999 7.60304V22.989C36.999 36.641 19.684 45.497 18.947 45.867C18.806 45.938 18.653 45.973 18.499 45.973ZM1.999 8.29904V22.989C1.999 34.262 15.814 42.365 18.499 43.832C21.183 42.363 34.999 34.248 34.999 22.989V8.29904L18.499 2.82004L1.999 8.29904Z" fill="#121820"/>
</g>
<defs>
<clipPath id="clip0_766_6">
<rect width="37" height="46" fill="white"/>
</clipPath>
</defs>
</svg>
