<svg width="35" height="40" viewBox="0 0 35 40" fill="none" xmlns="http://www.w3.org/2000/svg">
<g clip-path="url(#clip0_663_70)">
<path fill-rule="evenodd" clip-rule="evenodd" d="M34.858 29.965C34.728 30.387 34.347 30.676 33.911 30.676H1.58996C0.619957 30.676 0.232957 30.385 0.105957 29.96C0.199957 29.534 0.141957 29.75 0.506957 28.828C0.549957 28.798 5.53896 25.163 5.53896 13.29C5.53896 6.35696 10.898 0.928955 17.485 0.928955C24.72 0.928955 29.431 6.35696 29.431 13.29C29.431 25.163 34.42 28.798 34.47 28.833C34.828 29.83 34.988 29.544 34.858 29.965ZM27.44 13.29C27.44 7.46796 22.975 2.94495 17.485 2.94495C11.996 2.94495 7.52996 7.46796 7.52996 13.29C7.52996 21.649 5.15496 26.361 3.41196 28.659H31.558C29.815 26.361 27.44 21.649 27.44 13.29ZM13.828 36.189C14.305 35.911 14.913 36.74 15.189 36.556C15.42 36.96 15.754 37.298 16.153 37.532C16.766 37.894 17.482 37.99 18.167 37.805C18.852 37.621 19.426 37.178 19.781 36.556C20.57 36.74 20.667 35.912 21.142 36.19C21.617 36.469 21.779 37.86 21.503 37.569C20.643 39.71 19.8 39.912 17.477 39.912C16.686 39.912 15.886 39.707 15.154 39.277C14.455 38.866 13.871 38.276 13.466 37.569C13.19 37.86 13.352 36.469 13.828 36.189Z" fill="#121820"/>
</g>
<defs>
<clipPath id="clip0_663_70">
<rect width="35" height="40" fill="white"/>
</clipPath>
</defs>
</svg>
