<svg width="40" height="40" viewBox="0 0 40 40" fill="none" xmlns="http://www.w3.org/2000/svg">
<g clip-path="url(#clip0_766_8)">
<path fill-rule="evenodd" clip-rule="evenodd" d="M35.2 39.9991H4.8C2.153 39.9991 0 37.8451 0 35.1981V27.5981C0 24.9511 2.153 22.7981 4.8 22.7981H35.2C37.846 22.7981 40 24.9511 40 27.5981V35.1981C40 37.8451 37.846 39.9991 35.2 39.9991ZM37.999 27.5981C37.999 26.5401 36.744 24.7981 35.2 24.7981H4.8C3.256 24.7981 1.999 26.5401 1.999 27.5981V35.1981C1.999 36.7411 3.256 37.9981 4.8 37.9981H35.2C36.744 37.9981 37.999 36.7411 37.999 35.1981V27.5981ZM8.619 32.3981C8.66 32.3981 7.609 31.9511 7.609 31.3971C7.609 30.8451 8.47 30.3981 8.6 30.3981H8.619C9.171 30.3981 9.619 30.8451 9.619 31.3971C9.619 31.9511 9.171 32.3981 8.619 32.3981ZM35.2 17.1981H4.8C2.153 17.1981 0 15.4401 0 12.3981V4.7981C0 2.1521 2.153 0.100098 4.8 0.100098H35.2C37.846 0.100098 40 2.1521 40 4.7981V12.3981C40 15.4401 37.846 17.1981 35.2 17.1981ZM37.999 4.7981C37.999 3.2541 36.744 1.9981 35.2 1.9981H4.8C3.256 1.9981 1.999 3.2541 1.999 4.7981V12.3981C1.999 13.9421 3.256 15.1981 4.8 15.1981H35.2C36.744 15.1981 37.999 13.9421 37.999 12.3981V4.7981ZM8.619 9.5981C8.66 9.5981 7.609 9.1511 7.609 8.5981C7.609 8.4501 8.47 7.5981 8.6 7.5981H8.619C9.171 7.5981 9.619 8.4501 9.619 8.5981C9.619 9.1511 9.171 9.5981 8.619 9.5981Z" fill="#121820"/>
</g>
<defs>
<clipPath id="clip0_766_8">
<rect width="40" height="40" fill="white"/>
</clipPath>
</defs>
</svg>
