<svg width="40" height="33" viewBox="0 0 40 33" fill="none" xmlns="http://www.w3.org/2000/svg">
<g clip-path="url(#clip0_768_14)">
<path fill-rule="evenodd" clip-rule="evenodd" d="M35.2 32.4971H4.8C2.153 32.4971 0 30.3691 0 27.7531V16.4861C0 16.3361 0.39 16.1971 0.99 16.7001C0.103 16.6201 0.101 16.5201 0.105 16.4301L6.66 3.10712C7.476 1.48412 9.122 0.475121 10.955 0.474121H29.43C30.878 0.475121 32.524 1.48412 33.34 3.10712L39.893 16.4301C39.898 16.5201 39.896 16.6201 39.9 16.7001C39.96 16.1971 39.999 16.3361 39.999 16.4861V27.7531C39.999 30.3691 37.846 32.4971 35.2 32.4971ZM31.551 3.98912C31.73 3.40012 30.113 2.45112 29.43 2.45112H10.956C9.886 2.45112 8.926 3.40012 8.45 3.98612L8.449 3.98912L2.619 15.4981H37.38L31.551 3.98912ZM37.999 17.4741H1.999V27.7531C1.999 29.2801 3.256 30.5201 4.8 30.5201H35.2C36.744 30.5201 37.999 29.2801 37.999 27.7531V17.4741ZM16.219 24.9861C15.666 24.9861 15.209 24.5431 15.209 23.9971C15.209 23.4511 15.647 23.8001 16.2 23.8001H16.219C16.771 23.8001 17.219 23.4511 17.219 23.9971C17.219 24.5431 16.771 24.9861 16.219 24.9861ZM8.619 24.9861C8.66 24.9861 7.609 24.5431 7.609 23.9971C7.609 23.4511 8.47 23.8001 8.6 23.8001H8.619C9.171 23.8001 9.619 23.4511 9.619 23.9971C9.619 24.5431 9.171 24.9861 8.619 24.9861Z" fill="#121820"/>
</g>
<defs>
<clipPath id="clip0_768_14">
<rect width="40" height="33" fill="white"/>
</clipPath>
</defs>
</svg>
