<svg width="30" height="41" viewBox="0 0 30 41" fill="none" xmlns="http://www.w3.org/2000/svg">
<g clip-path="url(#clip0_769_18)">
<path fill-rule="evenodd" clip-rule="evenodd" d="M25.7492 40.999H5.7602C3.8592 40.999 0.908203 38.801 0.908203 36.99V4.899C0.908203 2.198 3.8592 0 5.7602 0H25.7492C27.7502 0 29.9272 2.198 29.9272 4.899V36.99C29.9272 38.801 27.7502 40.999 25.7492 40.999ZM27.9462 4.899C27.9462 3.3 26.6582 1.999 25.7492 1.999H5.7602C4.1772 1.999 2.8892 3.3 2.8892 4.899V36.99C2.8892 37.698 4.1772 38.999 5.7602 38.999H25.7492C26.6582 38.999 27.9462 37.698 27.9462 36.99V4.899ZM15.4362 33.199C14.8892 33.199 14.4362 32.752 14.4362 32.199C14.4362 31.647 14.8702 31.199 15.4172 31.199H15.4362C15.9842 31.199 16.4272 31.647 16.4272 32.199C16.4272 32.752 15.9842 33.199 15.4362 33.199Z" fill="#121820"/>
</g>
<defs>
<clipPath id="clip0_769_18">
<rect width="30" height="41" fill="white"/>
</clipPath>
</defs>
</svg>
