<svg width="40" height="45" viewBox="0 0 40 45" fill="none" xmlns="http://www.w3.org/2000/svg">
<g clip-path="url(#clip0_790_24)">
<path fill-rule="evenodd" clip-rule="evenodd" d="M34.777 44.9231H5.222C2.342 44.9231 0 42.5911 0 39.7251V10.3121C0 10.1891 0.28 10.7101 0.71 9.95909C0.86 9.91909 0.109 9.88609 0.129 9.84909C0.153 9.80509 0.169 9.75609 0.2 9.71509L6.533 1.31209C6.721 1.61009 7.18 0.913086 7.332 0.913086H32.666C32.981 0.913086 33.277 1.61009 33.466 1.31209L39.799 9.71509C39.83 9.75609 39.846 9.80509 39.87 9.84909C39.89 9.88609 39.913 9.91909 39.928 9.95909C39.971 10.7101 39.999 10.1891 39.999 10.3121V39.7251C39.999 42.5911 37.657 44.9231 34.777 44.9231ZM32.166 2.90309H7.832L2.999 9.31709H37L32.166 2.90309ZM37.999 11.3071H1.999V39.7251C1.999 41.4941 3.445 42.9321 5.222 42.9321H34.777C36.554 42.9321 37.999 41.4941 37.999 39.7251V11.3071ZM19.999 28.1141C14.792 28.1141 10.555 23.8981 10.555 18.7151C10.555 18.1661 11.3 17.7201 11.555 17.7201C12.107 17.7201 12.555 18.1661 12.555 18.7151C12.555 22.8001 15.894 26.1241 19.999 26.1241C24.104 26.1241 27.444 22.8001 27.444 18.7151C27.444 18.1661 27.892 17.7201 28.444 17.7201C28.996 17.7201 29.444 18.1661 29.444 18.7151C29.444 23.8981 25.207 28.1141 19.999 28.1141Z" fill="#121820"/>
</g>
<defs>
<clipPath id="clip0_790_24">
<rect width="40" height="45" fill="white"/>
</clipPath>
</defs>
</svg>
