<svg width="28" height="41" viewBox="0 0 28 41" fill="none" xmlns="http://www.w3.org/2000/svg">
<g clip-path="url(#clip0_790_22)">
<path fill-rule="evenodd" clip-rule="evenodd" d="M15.4707 33.858V38.999H21.5997C22.1557 38.999 22.6057 39.447 22.6057 39.999C22.6057 40.551 22.1557 40.999 21.5997 40.999H7.3287C6.7727 40.999 6.3227 40.551 6.3227 39.999C6.3227 39.447 6.7727 38.999 7.3287 38.999H13.4577V33.858C6.4877 33.343 0.970703 27.556 0.970703 20.499V16.954C0.970703 16.402 1.4207 15.954 1.9767 15.954C2.5327 15.954 2.9827 16.402 2.9827 16.954V20.499C2.9827 26.79 8.1337 31.908 14.4637 31.908C20.7947 31.908 25.9457 26.79 25.9457 20.499V16.954C25.9457 16.402 26.3957 15.954 26.9517 15.954C27.5077 15.954 27.9577 16.402 27.9577 16.954V20.499C27.9577 27.556 22.4407 33.343 15.4707 33.858ZM14.4637 26.817C10.9577 26.817 8.1057 23.983 8.1057 20.499V6.317C8.1057 2.834 10.9577 0 14.4637 0C17.9707 0 20.8227 2.834 20.8227 6.317V20.499C20.8227 23.983 17.9707 26.817 14.4637 26.817ZM18.8097 6.317C18.8097 3.936 16.8597 1.999 14.4637 1.999C12.6897 1.999 10.1187 3.936 10.1187 6.317V20.499C10.1187 22.88 12.6897 24.818 14.4637 24.818C16.8597 24.818 18.8097 22.88 18.8097 20.499V6.317Z" fill="#121820"/>
</g>
<defs>
<clipPath id="clip0_790_22">
<rect width="28" height="41" fill="white"/>
</clipPath>
</defs>
</svg>
