<svg width="42" height="38" viewBox="0 0 42 38" fill="none" xmlns="http://www.w3.org/2000/svg">
<g clip-path="url(#clip0_791_26)">
<path fill-rule="evenodd" clip-rule="evenodd" d="M20.9802 37.9608C20.7262 37.9608 20.4712 37.8628 20.2772 37.6668L3.4472 20.7028C-1.2298 16.1948 -1.2298 8.86082 3.4472 4.35382C5.6132 2.16882 8.4932 0.96582 11.5562 0.96582C14.6202 0.96582 17.5002 2.16882 19.6662 4.35382L20.9802 5.67882L22.2952 4.35382C22.3012 4.34582 22.3082 4.34082 22.3142 4.33482C24.4782 2.16282 27.3502 0.96582 30.4052 0.96582C30.4052 0.96582 30.4062 0.96582 30.4072 0.96582C33.4702 0.96582 36.3482 2.16982 38.5142 4.35382C38.5202 4.35882 38.5262 4.36582 38.5322 4.37282C42.9862 8.88082 42.9792 16.2018 38.5142 20.7028L21.6842 37.6668C21.4892 37.8628 21.2352 37.9608 20.9802 37.9608ZM11.5562 2.97282C9.2502 2.97282 6.6452 3.96682 4.8542 5.77082C1.1592 9.49682 1.1592 15.5588 4.8542 19.2838L20.9802 35.5398L37.1072 19.2838C40.8022 15.5598 40.8032 9.50082 37.1102 5.77582C37.1042 5.76982 37.9902 5.76482 37.9402 5.75882C35.3062 3.96182 32.9312 2.97282 30.4062 2.97282C27.8752 2.97282 25.4952 3.96582 23.7052 5.76882C23.6992 5.77582 23.6932 5.78182 23.6862 5.78682L21.6842 7.80582C21.2952 8.19782 20.6652 8.19782 20.2772 7.80582L18.2592 5.77082C16.4692 3.96682 14.8802 2.97282 11.5562 2.97282Z" fill="#121820"/>
</g>
<defs>
<clipPath id="clip0_791_26">
<rect width="42" height="38" fill="white"/>
</clipPath>
</defs>
</svg>
