<svg width="39" height="36" viewBox="0 0 39 36" fill="none" xmlns="http://www.w3.org/2000/svg">
<g clip-path="url(#clip0_663_72)">
<path fill-rule="evenodd" clip-rule="evenodd" d="M34.299 35.946H4.699C2.108 35.946 0 33.854 0 31.283V5.59096C0 3.20996 2.108 0.928955 4.699 0.928955H13.949C14.284 0.928955 14.596 1.94996 14.781 1.37096L18.185 6.43396H34.299C36.891 6.43396 38.999 8.52596 38.999 11.97V31.283C38.999 33.854 36.891 35.946 34.299 35.946ZM4.699 2.91296C3.21 2.91296 1.999 4.11396 1.999 5.59096V31.283C1.999 32.76 3.21 33.962 4.699 33.962H34.299C35.788 33.962 36.999 32.76 36.999 31.283V11.97C36.999 9.61996 35.788 8.41796 34.299 8.41796H17.649C17.315 8.41796 17.3 8.25196 16.817 7.97696L13.414 2.91296H4.699Z" fill="#121820"/>
</g>
<defs>
<clipPath id="clip0_663_72">
<rect width="39" height="36" fill="white"/>
</clipPath>
</defs>
</svg>
