<svg width="39" height="39" viewBox="0 0 39 39" fill="none" xmlns="http://www.w3.org/2000/svg">
<g clip-path="url(#clip0_663_74)">
<path fill-rule="evenodd" clip-rule="evenodd" d="M34.636 23.859H34.485C33.781 23.861 33.143 24.283 32.864 24.934C32.863 24.937 32.862 24.939 32.86 24.944C32.565 25.61 32.705 26.38 33.215 26.901L33.308 26.995C34.132 27.819 34.587 28.914 34.587 30.79C34.588 31.245 34.135 32.34 33.311 33.165C33.277 33.2 33.242 33.229 33.203 33.259C31.433 34.871 28.786 34.818 27.138 33.172L27.32 33.66C26.52 32.566 25.752 32.425 25.83 32.719C24.423 33.2 24.1 33.64 23.998 34.349V34.631C23.998 37.37 22.4 38.994 19.634 38.994C17.228 38.994 15.27 37.37 15.27 34.631V34.48C15.254 33.769 14.798 33.132 14.109 32.879C13.38 32.558 12.614 32.699 12.92 33.211L12.1 33.301C10.304 34.999 7.55 35.6 5.847 33.323C5.84 33.317 5.832 33.311 5.826 33.303C4.123 31.602 4.122 28.834 5.823 27.132L5.927 27.29C6.43 26.515 6.569 25.746 6.274 25.78C5.991 24.417 5.353 23.996 4.645 23.993H4.363C1.957 23.993 0 22.34 0 19.63C0 17.223 1.957 15.264 4.363 15.264H4.515C5.224 15.248 5.862 14.792 6.116 14.103C6.434 13.378 6.294 12.609 5.784 12.87L5.691 11.993C3.99 10.295 3.988 7.526 5.688 5.824C5.695 5.817 5.702 5.81 5.708 5.803C6.53 4.99 7.618 4.543 8.775 4.542C8.776 4.542 8.777 4.542 8.778 4.542C9.939 4.542 11.31 4.992 11.854 5.81C11.88 5.836 11.906 5.864 11.929 5.89L11.966 5.922C12.48 6.424 13.247 6.562 13.916 6.269C14.11 6.225 14.112 6.2 14.215 6.19C14.777 5.881 15.134 5.29 15.136 4.641V4.358C15.136 1.953 17.94 0.5 19.499 0.5C21.906 0.5 23.863 1.953 23.863 4.358V4.51C23.866 5.213 24.288 5.85 24.939 6.131C25.616 6.429 26.385 6.29 26.907 5.78L27 5.685C28.7 3.984 31.469 3.982 33.17 5.682C34.875 7.385 34.877 10.154 33.177 11.858C33.171 11.863 33.165 11.868 33.159 11.874L33.75 11.959C32.57 12.475 32.431 13.242 32.726 13.91C32.768 14.6 32.794 14.107 32.805 14.211C33.113 14.771 33.704 15.127 34.354 15.131H34.636C37.42 15.131 38.999 17.87 38.999 19.494C38.999 21.901 37.42 23.859 34.636 23.859ZM34.636 17.131H34.35C32.84 17.124 31.484 16.228 30.891 14.843C30.847 14.74 30.82 14.627 30.812 14.515C30.299 13.143 30.617 11.611 31.651 10.556L31.757 10.448C31.763 10.441 31.769 10.436 31.775 10.431C32.682 9.506 32.677 8.17 31.76 7.1C30.834 6.177 29.335 6.178 28.415 7.1L28.313 7.201C27.196 8.294 25.562 8.591 24.141 7.964C22.767 7.375 21.869 6.18 21.863 4.515V4.358C21.863 3.54 20.803 1.994 19.499 1.994C18.196 1.994 17.136 3.54 17.136 4.358V4.644C17.13 6.154 16.232 7.508 14.848 8.103C14.744 8.147 14.633 8.174 14.52 8.18C13.149 8.694 11.616 8.377 10.559 7.343L10.451 7.234C10.45 7.233 10.449 7.233 10.449 7.232C10.2 6.788 9.409 6.541 8.778 6.541C8.146 6.541 7.552 6.788 7.106 7.233C7.1 7.239 7.95 7.244 7.9 7.25C6.182 8.174 6.187 9.663 7.105 10.58L7.206 10.68C8.299 11.797 8.596 13.433 7.969 14.852C7.454 16.258 6.98 17.228 4.538 17.266H4.363C3.6 17.266 1.999 18.325 1.999 19.63C1.999 20.933 3.6 21.994 4.363 21.994H4.649C6.158 21.997 7.515 22.897 8.108 24.281C8.731 25.691 8.434 27.326 7.348 28.436L7.24 28.544C6.791 28.993 6.546 29.586 6.546 30.217C6.547 30.843 6.788 31.431 7.226 31.876C7.232 31.881 7.237 31.886 7.243 31.891C8.164 32.812 9.663 32.811 10.585 31.889L10.684 31.79C11.414 31.75 12.364 30.7 13.33 30.7C13.845 30.7 14.364 30.808 14.858 31.24C16.264 31.541 17.234 32.897 17.27 34.456V34.631C17.27 35.935 18.331 36.995 19.634 36.995C20.937 36.995 21.998 35.935 21.998 34.631V34.346C22.4 32.836 22.902 31.479 24.286 30.886C25.695 30.265 27.33 30.56 28.44 31.645L28.55 31.755C29.473 32.678 30.972 32.677 31.894 31.754C31.894 31.753 31.895 31.753 31.896 31.753C32.342 31.306 32.588 30.712 32.587 30.81C32.587 29.45 32.341 28.857 31.894 28.41L31.793 28.308C30.701 27.192 30.405 25.56 31.28 24.141C31.622 22.76 32.977 21.865 34.481 21.858H34.636C35.939 21.858 36.999 20.798 36.999 19.494C36.999 18.192 35.939 17.131 34.636 17.131ZM19.499 25.54C16.166 25.54 13.454 22.828 13.454 19.494C13.454 16.161 16.166 13.449 19.499 13.449C22.833 13.449 25.545 16.161 25.545 19.494C25.545 22.828 22.833 25.54 19.499 25.54ZM19.499 15.448C17.269 15.448 15.454 17.264 15.454 19.494C15.454 21.725 17.269 23.539 19.499 23.539C21.73 23.539 23.545 21.725 23.545 19.494C23.545 17.264 21.73 15.448 19.499 15.448Z" fill="#121820"/>
</g>
<defs>
<clipPath id="clip0_663_74">
<rect width="39" height="39" fill="white"/>
</clipPath>
</defs>
</svg>
