<svg width="42" height="48" viewBox="0 0 42 48" fill="none" xmlns="http://www.w3.org/2000/svg">
<g clip-path="url(#clip0_663_76)">
<path fill-rule="evenodd" clip-rule="evenodd" d="M18.776 47.824C18.642 47.824 18.508 47.797 18.379 47.74C17.973 47.562 17.732 47.134 17.787 46.689L19.863 29.878H1.54996C0.668957 29.878 0.316957 29.651 0.152957 29.296C0.0999573 28.941 0.419957 28.522 0.289957 28.222L22.441 1.30201C22.724 0.958007 23.197 0.844007 23.604 1.22001C24.1 1.20101 24.251 1.62901 24.196 2.73001L22.121 18.885H40.928C41.315 18.885 41.667 19.112 41.831 19.466C41.995 19.821 41.941 20.24 41.694 20.541L19.542 47.461C19.348 47.696 19.65 47.824 18.776 47.824ZM3.18396 27.859H20.992C21.278 27.859 21.55 27.982 21.739 28.201C21.928 28.417 22.16 28.706 21.981 28.992L20.187 43.522L38.8 20.904H20.992C20.706 20.904 20.434 20.78 20.245 20.563C20.55 20.345 19.967 20.56 20.3 19.769L21.796 5.24001L3.18396 27.859Z" fill="#121820"/>
</g>
<defs>
<clipPath id="clip0_663_76">
<rect width="42" height="48" fill="white"/>
</clipPath>
</defs>
</svg>
