<svg width="32" height="42" viewBox="0 0 32 42" fill="none" xmlns="http://www.w3.org/2000/svg">
<g clip-path="url(#clip0_663_78)">
<path fill-rule="evenodd" clip-rule="evenodd" d="M30.999 41.7931C30.794 41.7931 30.591 41.7301 30.418 41.6051L15.999 31.2171L1.58 41.6051C1.275 41.8241 0.875 41.8531 0.541 41.6811C0.208 41.5081 0 41.1631 0 40.7841V6.20409C0 3.26309 2.37 0.871094 5.286 0.871094H26.714C29.628 0.871094 31.999 3.26309 31.999 6.20409V40.7841C31.999 41.1631 31.79 41.5081 31.457 41.6811C31.313 41.7571 31.156 41.7931 30.999 41.7931ZM15.999 28.9691C16.204 28.9691 16.407 29.3201 16.58 29.1571L29.999 38.8241V6.20409C29.999 4.37509 28.526 2.88809 26.714 2.88809H5.286C3.474 2.88809 1.999 4.37509 1.999 6.20409V38.8241L15.418 29.1571C15.592 29.3201 15.795 28.9691 15.999 28.9691Z" fill="#121820"/>
</g>
<defs>
<clipPath id="clip0_663_78">
<rect width="32" height="42" fill="white"/>
</clipPath>
</defs>
</svg>
