<svg width="32" height="42" viewBox="0 0 32 42" fill="none" xmlns="http://www.w3.org/2000/svg">
<g clip-path="url(#clip0_651_10)">
<path fill-rule="evenodd" clip-rule="evenodd" d="M30.999 41.7921C30.794 41.7921 30.591 41.7291 30.418 41.6041L15.999 31.2161L1.58 41.6041C1.275 41.8231 0.875 41.8521 0.541 41.6801C0.208 41.5071 0 41.1621 0 40.7841V6.20312C0 3.26112 2.37 0.870117 5.285 0.870117H26.714C29.628 0.870117 31.999 3.26112 31.999 6.20312V40.7841C31.999 41.1621 31.79 41.5071 31.457 41.6801C31.313 41.7551 31.155 41.7921 30.999 41.7921ZM15.999 28.9681C16.203 28.9681 16.407 29.3001 16.58 29.1561L29.999 38.8231V6.20312C29.999 4.37612 28.526 2.88712 26.714 2.88712H5.285C3.474 2.88712 1.999 4.37612 1.999 6.20312V38.8231L15.418 29.1561C15.592 29.3001 15.795 28.9681 15.999 28.9681Z" fill="white"/>
</g>
<defs>
<clipPath id="clip0_651_10">
<rect width="32" height="42" fill="white"/>
</clipPath>
</defs>
</svg>
