<svg width="52" height="41" viewBox="0 0 52 41" fill="none" xmlns="http://www.w3.org/2000/svg">
<path fill-rule="evenodd" clip-rule="evenodd" d="M14.3472 10.0857L15.489 11.8048C14.2989 13.6782 13.2013 15.6605 12.2187 17.7107C11.0134 20.2204 10.3082 22.8204 10.1225 25.4383L10.0211 26.8594L11.4122 27.1437L17.1028 28.3073V39.3778H2.61623V30.8767C2.61623 25.4536 3.84006 21.0141 6.25315 18.4003C8.4419 14.6552 11.1597 12.106 14.3472 10.0857ZM37.6281 10.0857L38.77 11.8048C37.5791 13.6782 37.1762 15.6605 35.4989 17.7107C34.2944 20.2204 33.5892 22.8204 33.4026 25.4383L33.3021 26.8594L34.6924 27.1437L40.383 28.3073V39.3778H25.898V30.8767C25.898 25.4536 27.121 21.0141 29.5341 18.4003C31.7229 14.6552 34.4407 12.106 37.6281 10.0857ZM38.1202 8C34.1528 10.1527 31.5636 13.0936 28.2259 16.7272C25.5949 20.3625 24.281 25.0798 24.281 30.8767V41H42V26.9822L35.0156 25.5538C35.1877 23.1329 35.8342 20.7517 36.9559 19.0544C38.6397 16.0788 39.3264 13.872 40.7062 11.7951L38.1202 8ZM14.8385 8C10.8719 10.1527 7.57348 13.0936 4.94489 16.7272C2.31309 20.3625 1 25.0798 1 30.8767V41H19.2771V26.9822L11.7347 25.5538C11.9067 23.1329 12.5532 20.7517 13.6749 19.0544C14.7942 16.0788 16.0462 13.872 17.4261 11.7951L14.8385 8Z" fill="#121820"/>
</svg>
