<svg width="42" height="42" viewBox="0 0 42 42" fill="none" xmlns="http://www.w3.org/2000/svg">
<g clip-path="url(#clip0_716_2)">
<path fill-rule="evenodd" clip-rule="evenodd" d="M21 41.999C9.42 41.999 0 32.579 0 20.999C0 9.42 9.42 0 21 0C32.579 0 41.999 9.42 41.999 20.999C41.999 32.579 32.579 41.999 21 41.999ZM21 1.999C10.523 1.999 1.999 10.522 1.999 20.999C1.999 31.476 10.523 39.999 21 39.999C31.476 39.999 39.999 31.476 39.999 20.999C39.999 10.522 31.476 1.999 21 1.999ZM21.156 23.948C21.51 23.982 20.944 24 20.839 24C20.421 24 20.32 23.735 19.892 23.316C19.716 22.793 19.999 22.227 20.522 22.51C22.1 21.554 25.839 19.677 25.839 16.999C25.843 14.876 24.5 12.978 22.498 12.274C19.896 11.359 17.38 12.73 16.123 15.331C15.94 15.852 15.369 16.125 14.847 15.942C14.327 15.76 14.53 15.188 14.236 14.667C14.857 12.903 16.127 11.487 17.813 10.678C19.498 9.869 21.398 9.766 23.163 10.387C25.964 11.373 27.844 14.31 27.839 17.1C27.839 21.666 21.429 23.857 21.156 23.948ZM21 29.999H21.19C21.572 29.999 22.19 30.447 22.19 30.999C22.19 31.551 21.572 31.999 21.19 31.999C20.467 31.999 20.9 31.551 20.9 30.999C20.9 30.447 20.447 29.999 21 29.999Z" fill="#121820"/>
</g>
<defs>
<clipPath id="clip0_716_2">
<rect width="42" height="42" fill="white"/>
</clipPath>
</defs>
</svg>
