<svg width="42" height="42" viewBox="0 0 42 42" fill="none" xmlns="http://www.w3.org/2000/svg">
<g clip-path="url(#clip0_716_6)">
<path fill-rule="evenodd" clip-rule="evenodd" d="M21 41.999C9.42 41.999 0 32.579 0 20.999C0 9.419 9.42 0 21 0C32.579 0 41.999 9.419 41.999 20.999C41.999 32.579 32.579 41.999 21 41.999ZM21 1.999C10.523 1.999 1.999 10.523 1.999 20.999C1.999 31.476 10.523 39.999 21 39.999C31.476 39.999 39.999 31.476 39.999 20.999C39.999 10.523 31.476 1.999 21 1.999ZM21.19 13.999C20.467 13.999 20.9 13.551 20.9 12.999C20.9 12.447 20.447 11.999 21 11.999H21.19C21.572 11.999 22.19 12.447 22.19 12.999C22.19 13.551 21.572 13.999 21.19 13.999ZM21 19.999C21.552 19.999 21.999 20.447 21.999 20.999V28.999C21.999 29.551 21.552 29.999 21 29.999C20.447 29.999 19.999 29.551 19.999 28.999V20.999C19.999 20.447 20.447 19.999 21 19.999Z" fill="#121820"/>
</g>
<defs>
<clipPath id="clip0_716_6">
<rect width="42" height="42" fill="white"/>
</clipPath>
</defs>
</svg>
