<svg width="26" height="26" viewBox="0 0 26 26" fill="none" xmlns="http://www.w3.org/2000/svg">
    <path fillRule="evenodd" clipRule="evenodd" d="M23.4812 1.21875H2.51875C1.80078 1.21875 1.21875 1.80078 1.21875 2.51875V23.4812C1.21875 24.1992 1.80078 24.7812 2.51875 24.7812H13.8125V15.6691H10.7453V12.1022H13.8125V9.47781C13.8125 6.435 15.6731 4.7775 18.3869 4.7775C19.3014 4.77551 20.2153 4.82161 21.125 4.91563V8.09656H19.2563C17.7775 8.09656 17.4891 8.79531 17.4891 9.82719V12.0981H21.0234L20.5644 15.665H17.4688V24.7812H23.4812C24.1992 24.7812 24.7812 24.1992 24.7812 23.4812V2.51875C24.7812 1.80078 24.1992 1.21875 23.4812 1.21875Z" fill="currentColor"></path>
</svg>