<svg width="26" height="26" viewBox="0 0 26 26" fill="none" xmlns="http://www.w3.org/2000/svg">
    <path fillRule="evenodd" clipRule="evenodd" d="M8.14003 1.28914C9.39622 1.23182 9.7973 1.21826 12.9959 1.21826C16.1945 1.21826 16.5955 1.23182 17.8517 1.28914C19.1053 1.34631 19.9615 1.54543 20.7106 1.83659C21.4851 2.13753 22.1419 2.54024 22.7967 3.19499C23.4514 3.84978 23.8542 4.50659 24.1551 5.28106C24.4463 6.0302 24.6454 6.88635 24.7025 8.13993C24.7599 9.39613 24.7734 9.79721 24.7734 12.9958C24.7734 16.1944 24.7599 16.5955 24.7025 17.8517C24.6454 19.1052 24.4463 19.9614 24.1551 20.7105C23.8542 21.485 23.4514 22.1418 22.7967 22.7966C22.1419 23.4514 21.4851 23.8541 20.7106 24.155C19.9615 24.4462 19.1053 24.6453 17.8517 24.7025C16.5955 24.7598 16.1945 24.7733 12.9959 24.7733C9.7973 24.7733 9.39622 24.7598 8.14003 24.7025C6.88644 24.6453 6.03029 24.4462 5.28115 24.155C4.50668 23.8541 3.84987 23.4514 3.19508 22.7966C2.54033 22.1418 2.13762 21.485 1.83668 20.7105C1.54552 19.9614 1.3464 19.1052 1.28923 17.8517C1.23191 16.5955 1.21835 16.1944 1.21835 12.9958C1.21835 9.79721 1.23191 9.39613 1.28923 8.13993C1.3464 6.88635 1.54552 6.0302 1.83668 5.28106C2.13762 4.50659 2.54033 3.84978 3.19508 3.19499C3.84987 2.54024 4.50668 2.13753 5.28115 1.83659C6.03029 1.54543 6.88644 1.34631 8.14003 1.28914ZM19.9419 3.81453C19.5269 3.65324 18.9033 3.46137 17.755 3.40901C16.5131 3.35235 16.1406 3.34033 12.9959 3.34033C9.85115 3.34033 9.47864 3.35235 8.23675 3.40901C7.08845 3.46137 6.46484 3.65324 6.04983 3.81453C5.50009 4.02818 5.10775 4.28339 4.69564 4.69555C4.28348 5.10766 4.02827 5.49999 3.81462 6.04974C3.65333 6.46475 3.46146 7.08836 3.4091 8.23666C3.35244 9.47855 3.34042 9.85106 3.34042 12.9958C3.34042 16.1405 3.35244 16.513 3.4091 17.7549C3.46146 18.9032 3.65333 19.5268 3.81462 19.9418C4.02827 20.4916 4.28353 20.8839 4.69564 21.296C5.10775 21.7082 5.50009 21.9634 6.04983 22.1771C6.46484 22.3383 7.08845 22.5302 8.23675 22.5826C9.4785 22.6392 9.85092 22.6513 12.9959 22.6513C16.1408 22.6513 16.5133 22.6392 17.755 22.5826C18.9033 22.5302 19.5269 22.3383 19.9419 22.1771C20.4917 21.9634 20.884 21.7082 21.2961 21.296C21.7083 20.8839 21.9635 20.4916 22.1771 19.9418C22.3384 19.5268 22.5303 18.9032 22.5827 17.7549C22.6393 16.513 22.6513 16.1405 22.6513 12.9958C22.6513 9.85106 22.6393 9.47855 22.5827 8.23666C22.5303 7.08836 22.3384 6.46475 22.1771 6.04974C21.9635 5.49999 21.7083 5.10766 21.2961 4.69555C20.884 4.28339 20.4917 4.02818 19.9419 3.81453ZM12.9959 6.94788C9.65569 6.94788 6.94797 9.6556 6.94797 12.9958C6.94797 16.336 9.65569 19.0437 12.9959 19.0437C16.3361 19.0437 19.0438 16.336 19.0438 12.9958C19.0438 9.6556 16.3361 6.94788 12.9959 6.94788ZM9.07004 12.9958C9.07004 15.164 10.8277 16.9216 12.9959 16.9216C15.1641 16.9216 16.9217 15.164 16.9217 12.9958C16.9217 10.8276 15.1641 9.06995 12.9959 9.06995C10.8277 9.06995 9.07004 10.8276 9.07004 12.9958ZM19.2828 8.12227C20.0633 8.12227 20.6961 7.48954 20.6961 6.70898C20.6961 5.92843 20.0633 5.29565 19.2828 5.29565C18.5023 5.29565 17.8695 5.92843 17.8695 6.70898C17.8695 7.48954 18.5023 8.12227 19.2828 8.12227Z" fill="currentColor"></path>
</svg>