<svg width="26" height="26" viewBox="0 0 26 26" fill="none" xmlns="http://www.w3.org/2000/svg">
    <path fill-rule="evenodd" clip-rule="evenodd" d="M21.2977 21.2966H17.8037V15.8274C17.8037 14.5237 17.7802 12.8468 15.9867 12.8468C14.1697 12.8468 13.8921 14.2684 13.8921 15.7345V21.2966H10.4008V10.052H13.7494V11.5888H13.7979C14.2652 10.7052 15.4041 9.77319 17.1047 9.77319C20.6445 9.77319 21.2977 12.1006 21.2977 15.1297V21.2966ZM6.46038 8.51658C5.33717 8.51658 4.43127 7.60812 4.43127 6.4889C4.43127 5.37099 5.33717 4.46252 6.46038 4.46252C7.57704 4.46252 8.48556 5.37099 8.48556 6.4889C8.48556 7.60812 7.57704 8.51658 6.46038 8.51658ZM4.7088 21.2967H8.20803V10.0521H4.7088V21.2967ZM23.0375 1.21875H2.95593C1.99766 1.21875 1.21875 1.9793 1.21875 2.91787V23.0808C1.21875 24.0194 1.99766 24.7812 2.95593 24.7812H23.0375C23.9984 24.7812 24.7812 24.0194 24.7812 23.0808V2.91787C24.7812 1.9793 23.9984 1.21875 23.0375 1.21875Z" fill="currentColor"></path>
</svg>