<svg width="66" height="23" viewBox="0 0 66 23" fill="none" xmlns="http://www.w3.org/2000/svg">
    <g clipPath="url(#clip0)">
        <path d="M44.87 17.272C44.3429 18.0288 43.5873 18.597 42.714 18.8933C41.8406 19.1896 40.8953 19.1986 40.0165 18.9187C39.1377 18.6389 38.3716 18.0851 37.8303 17.3383C37.2891 16.5915 37.0012 15.6911 37.0087 14.7689C37.0163 13.8466 37.319 12.951 37.8724 12.2132C38.4258 11.4755 39.2009 10.9343 40.0841 10.6689C40.9674 10.4035 41.9124 10.4279 42.7808 10.7385C43.6492 11.0491 44.3954 11.6296 44.91 12.395L48.101 10.511C47.1718 9.04514 45.7922 7.92029 44.1692 7.30537C42.5463 6.69045 40.7677 6.61865 39.1004 7.10075C37.4332 7.58285 35.9674 8.59284 34.9231 9.97903C33.8788 11.3652 33.3124 13.0528 33.309 14.7883C33.3056 16.5238 33.8653 18.2136 34.9041 19.6039C35.9429 20.9943 37.4047 22.01 39.07 22.4987C40.7353 22.9874 42.5142 22.9226 44.1396 22.3141C45.765 21.7056 47.149 20.5862 48.084 19.124L44.871 17.272H44.87ZM53.662 0H49.96V22.206H53.66V14.804C53.66 13.6588 54.1149 12.5605 54.9247 11.7507C55.7345 10.9409 56.8328 10.486 57.978 10.486C59.1232 10.486 60.2215 10.9409 61.0312 11.7507C61.841 12.5605 62.296 13.6588 62.296 14.804V22.206H65.997V14.084C65.9964 12.6554 65.5767 11.2584 64.7899 10.066C64.003 8.87364 62.8836 7.93836 61.5703 7.37605C60.2571 6.81373 58.8077 6.64911 57.4017 6.90258C55.9958 7.15605 54.6952 7.81647 53.661 8.802V0H53.662ZM27.756 0H24.055V17.271C24.0548 18.3369 24.3615 19.3803 24.9385 20.2765C25.5155 21.1728 26.3383 21.8839 27.3086 22.3251C28.2789 22.7662 29.3557 22.9186 30.4104 22.7642C31.465 22.6097 32.4529 22.1549 33.256 21.454L31.468 18.42C31.2949 18.6388 31.0745 18.8155 30.8234 18.9369C30.5723 19.0583 30.2969 19.1212 30.018 19.121H29.606C29.1154 19.1207 28.645 18.9257 28.2981 18.5789C27.9512 18.232 27.7562 17.7616 27.756 17.271V11.103H31.456V7.402H27.756V0ZM19.74 0C19.1947 0 18.6717 0.216614 18.2861 0.602188C17.9006 0.987763 17.684 1.51071 17.684 2.056C17.684 2.60129 17.9006 3.12424 18.2861 3.50981C18.6717 3.89539 19.1947 4.112 19.74 4.112C20.2852 4.112 20.8082 3.89539 21.1938 3.50981C21.5793 3.12424 21.796 2.60129 21.796 2.056C21.796 1.51071 21.5793 0.987763 21.1938 0.602188C20.8082 0.216614 20.2852 0 19.74 0V0ZM21.59 22.206V7.402H17.89V22.206H21.59Z" fill="currentColor"></path>
        <path fillRule="evenodd" clipRule="evenodd" d="M0 22.206H3.7V17.888H7.093C8.26754 17.888 9.43058 17.6567 10.5157 17.2072C11.6009 16.7577 12.5868 16.0989 13.4174 15.2684C14.2479 14.4378 14.9067 13.4519 15.3562 12.3667C15.8057 11.2816 16.037 10.1185 16.037 8.944C16.037 7.76946 15.8057 6.60642 15.3562 5.52128C14.9067 4.43614 14.2479 3.45016 13.4174 2.61964C12.5868 1.78911 11.6009 1.1303 10.5157 0.680821C9.43058 0.231343 8.26754 -2.47516e-08 7.093 0L0 0V22.206ZM3.7 3.7H7.093C8.48353 3.7 9.81711 4.25239 10.8004 5.23564C11.7836 6.21889 12.336 7.55247 12.336 8.943C12.336 10.3335 11.7836 11.6671 10.8004 12.6504C9.81711 13.6336 8.48353 14.186 7.093 14.186H3.701V3.7H3.7Z" fill="currentColor"></path>
    </g>
    <defs>
        <clipPath id="clip0">
            <rect width="66" height="23" fill="white"></rect>
        </clipPath>
    </defs>
</svg>