<svg width="26" height="26" viewBox="0 0 26 26" fill="none" xmlns="http://www.w3.org/2000/svg">
    <path fillRule="evenodd" clipRule="evenodd" d="M8.31829 23.3331C17.8228 23.3331 23.0236 15.4513 23.0236 8.62782C23.0236 8.40609 23.0236 8.18435 23.0135 7.96261C24.0214 7.23692 24.8983 6.31973 25.5938 5.28159C24.6665 5.69483 23.6687 5.96696 22.6204 6.09799C23.6888 5.46301 24.5052 4.44503 24.8983 3.23554C23.9005 3.83021 22.7918 4.25352 21.6125 4.48534C20.6651 3.47744 19.3246 2.85254 17.843 2.85254C14.9906 2.85254 12.6724 5.17072 12.6724 8.02308C12.6724 8.42624 12.7228 8.81933 12.8035 9.20233C8.50979 8.99067 4.69992 6.92447 2.14992 3.79997C1.70644 4.56597 1.45447 5.45293 1.45447 6.40036C1.45447 8.19443 2.37166 9.77683 3.75249 10.7041C2.90585 10.6739 2.10961 10.442 1.41415 10.059C1.41415 10.0792 1.41415 10.0994 1.41415 10.1296C1.41415 12.6292 3.19814 14.7256 5.55663 15.1994C5.12324 15.3203 4.66968 15.3808 4.19597 15.3808C3.86336 15.3808 3.54083 15.3505 3.22838 15.2901C3.88352 17.3462 5.79853 18.8379 8.05623 18.8782C6.28233 20.2691 4.05486 21.0956 1.63589 21.0956C1.22265 21.0956 0.809411 21.0754 0.40625 21.025C2.68411 22.4764 5.40545 23.3331 8.31829 23.3331Z" fill="currentColor"></path>
</svg>